RobotoSerifMicroWide-Super.ufo
<glyph name="quotesingle" format="2">
  <advance width="299"/>
  <unicode hex="0027"/>
  <outline>
    <contour>
      <point x="242" y="769" type="line"/>
      <point x="242" y="668"/>
      <point x="206" y="597"/>
      <point x="206" y="447" type="curve"/>
      <point x="93" y="447" type="line"/>
      <point x="93" y="597"/>
      <point x="57" y="667"/>
      <point x="57" y="769" type="curve"/>
    </contour>
  </outline>
</glyph>
<glyph name="three" format="2">
  <advance width="602"/>
  <unicode hex="0033"/>
  <outline>
    <contour>
      <point x="321" y="332" type="line"/>
      <point x="491" y="320"/>
      <point x="563" y="273"/>
      <point x="563" y="158" type="curve" smooth="yes"/>
      <point x="563" y="-6"/>
      <point x="444" y="-58"/>
      <point x="271" y="-58" type="curve" smooth="yes"/>
      <point x="101" y="-58"/>
      <point x="48" y="8"/>
      <point x="10" y="91" type="curve"/>
      <point x="106" y="139" type="line"/>
      <point x="128" y="100"/>
      <point x="162" y="41"/>
      <point x="252" y="41" type="curve" smooth="yes"/>
      <point x="330" y="41"/>
      <point x="363" y="59"/>
      <point x="363" y="161" type="curve" smooth="yes"/>
      <point x="363" y="237"/>
      <point x="345" y="276"/>
      <point x="245" y="276" type="curve" smooth="yes"/>
      <point x="146" y="276" type="line"/>
      <point x="146" y="379" type="line"/>
      <point x="232" y="379" type="line" smooth="yes"/>
      <point x="321" y="379"/>
      <point x="355" y="421"/>
      <point x="355" y="514" type="curve" smooth="yes"/>
      <point x="355" y="575"/>
      <point x="334" y="601"/>
      <point x="266" y="601" type="curve" smooth="yes"/>
      <point x="216" y="601"/>
      <point x="176" y="588"/>
      <point x="166" y="590" type="curve"/>
      <point x="156" y="603"/>
      <point x="170" y="618"/>
      <point x="203" y="621" type="curve"/>
      <point x="203" y="482" type="line"/>
      <point x="54" y="482" type="line"/>
      <point x="54" y="644" type="line"/>
      <point x="105" y="671"/>
      <point x="190" y="694"/>
      <point x="303" y="694" type="curve" smooth="yes"/>
      <point x="461" y="694"/>
      <point x="548" y="648"/>
      <point x="548" y="521" type="curve" smooth="yes"/>
      <point x="548" y="388"/>
      <point x="441" y="355"/>
      <point x="319" y="336" type="curve"/>
      <point x="362" y="352" type="line"/>
      <point x="362" y="312" type="line"/>
    </contour>
  </outline>
</glyph>
<glyph name="six" format="2">
  <advance width="602"/>
  <unicode hex="0036"/>
  <outline>
    <contour>
      <point x="519" y="647" type="line"/>
      <point x="312" y="630"/>
      <point x="231" y="549"/>
      <point x="231" y="288" type="curve" smooth="yes"/>
      <point x="231" y="102"/>
      <point x="251" y="83"/>
      <point x="307" y="83" type="curve" smooth="yes"/>
      <point x="363" y="83"/>
      <point x="373" y="107"/>
      <point x="373" y="239" type="curve" smooth="yes"/>
      <point x="373" y="349"/>
      <point x="362" y="381"/>
      <point x="308" y="381" type="curve" smooth="yes"/>
      <point x="266" y="381"/>
      <point x="242" y="365"/>
      <point x="203" y="316" type="curve"/>
      <point x="197" y="336" type="line"/>
      <point x="235" y="414"/>
      <point x="282" y="474"/>
      <point x="392" y="474" type="curve" smooth="yes"/>
      <point x="516" y="474"/>
      <point x="576" y="410"/>
      <point x="576" y="252" type="curve" smooth="yes"/>
      <point x="576" y="66"/>
      <point x="487" y="-10"/>
      <point x="315" y="-10" type="curve" smooth="yes"/>
      <point x="134" y="-10"/>
      <point x="30" y="67"/>
      <point x="30" y="299" type="curve" smooth="yes"/>
      <point x="30" y="569"/>
      <point x="176" y="715"/>
      <point x="506" y="751" type="curve"/>
    </contour>
  </outline>
</glyph>
<glyph name="nine" format="2">
  <advance width="602"/>
  <unicode hex="0039"/>
  <outline>
    <contour>
      <point x="84" y="15" type="line"/>
      <point x="291" y="33"/>
      <point x="372" y="117"/>
      <point x="372" y="388" type="curve" smooth="yes"/>
      <point x="372" y="581"/>
      <point x="354" y="601"/>
      <point x="298" y="601" type="curve" smooth="yes"/>
      <point x="241" y="601"/>
      <point x="230" y="582"/>
      <point x="230" y="449" type="curve" smooth="yes"/>
      <point x="230" y="345"/>
      <point x="241" y="312"/>
      <point x="296" y="312" type="curve" smooth="yes"/>
      <point x="338" y="312"/>
      <point x="362" y="327"/>
      <point x="400" y="376" type="curve"/>
      <point x="406" y="356" type="line"/>
      <point x="368" y="278"/>
      <point x="322" y="219"/>
      <point x="216" y="219" type="curve" smooth="yes"/>
      <point x="92" y="219"/>
      <point x="27" y="290"/>
      <point x="27" y="441" type="curve" smooth="yes"/>
      <point x="27" y="628"/>
      <point x="124" y="694"/>
      <point x="296" y="694" type="curve" smooth="yes"/>
      <point x="477" y="694"/>
      <point x="573" y="614"/>
      <point x="573" y="376" type="curve" smooth="yes"/>
      <point x="573" y="98"/>
      <point x="427" y="-52"/>
      <point x="97" y="-89" type="curve"/>
    </contour>
  </outline>
</glyph>
<glyph name="C" format="2">
  <advance width="831"/>
  <unicode hex="0043"/>
  <anchor x="423" y="745" name="top"/>
  <anchor x="423" y="0" name="bottom"/>
  <outline>
    <contour>
      <point x="459" y="629" type="curve" smooth="yes"/>
      <point x="561" y="629"/>
      <point x="616" y="564"/>
      <point x="646" y="461" type="curve"/>
      <point x="768" y="461" type="line"/>
      <point x="768" y="720" type="line"/>
      <point x="669" y="720" type="line"/>
      <point x="645" y="531" type="line"/>
      <point x="658" y="514"/>
      <point x="672" y="496"/>
      <point x="685" y="479" type="curve"/>
      <point x="666" y="632"/>
      <point x="592" y="735"/>
      <point x="426" y="735" type="curve" smooth="yes"/>
      <point x="211" y="735"/>
      <point x="48" y="625"/>
      <point x="48" y="355" type="curve" smooth="yes"/>
      <point x="48" y="93"/>
      <point x="203" y="-25"/>
      <point x="441" y="-25" type="curve" smooth="yes"/>
      <point x="638" y="-25"/>
      <point x="729" y="57"/>
      <point x="777" y="207" type="curve"/>
      <point x="688" y="254" type="line"/>
      <point x="653" y="144"/>
      <point x="607" y="81"/>
      <point x="470" y="81" type="curve" smooth="yes"/>
      <point x="339" y="81"/>
      <point x="292" y="137"/>
      <point x="292" y="355" type="curve" smooth="yes"/>
      <point x="292" y="563"/>
      <point x="334" y="629"/>
    </contour>
  </outline>
</glyph>
<glyph name="K" format="2">
  <advance width="936"/>
  <unicode hex="004B"/>
  <anchor x="469" y="741" name="top"/>
  <anchor x="469" y="0" name="bottom"/>
  <outline>
    <contour>
      <point x="42" y="0" type="line"/>
      <point x="399" y="0" type="line"/>
      <point x="399" y="101" type="line"/>
      <point x="391" y="101" type="line" smooth="yes"/>
      <point x="370" y="101"/>
      <point x="345" y="104"/>
      <point x="345" y="111" type="curve" smooth="yes"/>
      <point x="345" y="600" type="line" smooth="yes"/>
      <point x="345" y="607"/>
      <point x="370" y="610"/>
      <point x="405" y="610" type="curve" smooth="yes"/>
      <point x="419" y="610" type="line"/>
      <point x="419" y="710" type="line"/>
      <point x="42" y="710" type="line"/>
      <point x="42" y="610" type="line"/>
      <point x="54" y="610" type="line" smooth="yes"/>
      <point x="86" y="610"/>
      <point x="111" y="603"/>
      <point x="111" y="574" type="curve" smooth="yes"/>
      <point x="111" y="137" type="line" smooth="yes"/>
      <point x="111" y="108"/>
      <point x="86" y="101"/>
      <point x="54" y="101" type="curve" smooth="yes"/>
      <point x="42" y="101" type="line"/>
    </contour>
    <contour>
      <point x="508" y="0" type="line"/>
      <point x="909" y="0" type="line"/>
      <point x="909" y="101" type="line"/>
      <point x="896" y="101" type="line" smooth="yes"/>
      <point x="878" y="101"/>
      <point x="861" y="104"/>
      <point x="846" y="122" type="curve" smooth="yes"/>
      <point x="555" y="490" type="line"/>
      <point x="493" y="351" type="line"/>
      <point x="759" y="581" type="line" smooth="yes"/>
      <point x="784" y="603"/>
      <point x="812" y="610"/>
      <point x="846" y="610" type="curve" smooth="yes"/>
      <point x="870" y="610" type="line"/>
      <point x="870" y="710" type="line"/>
      <point x="542" y="710" type="line"/>
      <point x="542" y="610" type="line"/>
      <point x="561" y="610" type="line" smooth="yes"/>
      <point x="597" y="610"/>
      <point x="646" y="606"/>
      <point x="646" y="599" type="curve"/>
      <point x="375" y="371" type="line"/>
      <point x="375" y="352" type="line"/>
      <point x="572" y="111" type="line"/>
      <point x="572" y="104"/>
      <point x="547" y="101"/>
      <point x="515" y="101" type="curve" smooth="yes"/>
      <point x="508" y="101" type="line"/>
    </contour>
  </outline>
</glyph>
<glyph name="O" format="2">
  <advance width="903"/>
  <unicode hex="004F"/>
  <anchor x="451" y="741" name="top"/>
  <anchor x="451" y="0" name="bottom"/>
  <outline>
    <contour>
      <point x="452" y="-25" type="curve" smooth="yes"/>
      <point x="697" y="-25"/>
      <point x="855" y="97"/>
      <point x="855" y="355" type="curve" smooth="yes"/>
      <point x="855" y="612"/>
      <point x="697" y="735"/>
      <point x="452" y="735" type="curve" smooth="yes"/>
      <point x="206" y="735"/>
      <point x="48" y="612"/>
      <point x="48" y="355" type="curve" smooth="yes"/>
      <point x="48" y="97"/>
      <point x="206" y="-25"/>
    </contour>
    <contour>
      <point x="452" y="83" type="curve" smooth="yes"/>
      <point x="339" y="83"/>
      <point x="292" y="145"/>
      <point x="292" y="355" type="curve" smooth="yes"/>
      <point x="292" y="565"/>
      <point x="340" y="627"/>
      <point x="452" y="627" type="curve" smooth="yes"/>
      <point x="564" y="627"/>
      <point x="611" y="565"/>
      <point x="611" y="355" type="curve" smooth="yes"/>
      <point x="611" y="145"/>
      <point x="564" y="83"/>
    </contour>
  </outline>
</glyph>
<glyph name="V" format="2">
  <advance width="834"/>
  <unicode hex="0056"/>
  <outline>
    <contour>
      <point x="496" y="77" type="line"/>
      <point x="330" y="599" type="line"/>
      <point x="330" y="606"/>
      <point x="347" y="610"/>
      <point x="395" y="610" type="curve" smooth="yes"/>
      <point x="405" y="610" type="line"/>
      <point x="405" y="710" type="line"/>
      <point x="25" y="710" type="line"/>
      <point x="25" y="610" type="line"/>
      <point x="31" y="610" type="line" smooth="yes"/>
      <point x="66" y="610"/>
      <point x="90" y="595"/>
      <point x="106" y="546" type="curve" smooth="yes"/>
      <point x="286" y="1" type="line"/>
      <point x="552" y="1" type="line"/>
      <point x="731" y="546" type="line" smooth="yes"/>
      <point x="747" y="594"/>
      <point x="770" y="610"/>
      <point x="802" y="610" type="curve" smooth="yes"/>
      <point x="808" y="610" type="line"/>
      <point x="808" y="710" type="line"/>
      <point x="564" y="710" type="line"/>
      <point x="564" y="610" type="line"/>
      <point x="574" y="610" type="line" smooth="yes"/>
      <point x="623" y="610"/>
      <point x="640" y="600"/>
      <point x="640" y="587" type="curve"/>
      <point x="472" y="73" type="line"/>
    </contour>
  </outline>
</glyph>
<glyph name="j" format="2">
  <advance width="433"/>
  <unicode hex="006A"/>
  <anchor x="219" y="551" name="top"/>
  <outline>
    <contour>
      <point x="117" y="-46" type="line" smooth="yes"/>
      <point x="117" y="-118"/>
      <point x="76" y="-143"/>
      <point x="22" y="-143" type="curve" smooth="yes"/>
      <point x="-16" y="-143"/>
      <point x="-55" y="-135"/>
      <point x="-76" y="-129" type="curve"/>
      <point x="-76" y="-234" type="line"/>
      <point x="-59" y="-240"/>
      <point x="-12" y="-250"/>
      <point x="61" y="-250" type="curve" smooth="yes"/>
      <point x="233" y="-250"/>
      <point x="338" y="-197"/>
      <point x="338" y="-35" type="curve" smooth="yes"/>
      <point x="338" y="572" type="line"/>
      <point x="47" y="572" type="line"/>
      <point x="47" y="471" type="line"/>
      <point x="59" y="469" type="line" smooth="yes"/>
      <point x="93" y="464"/>
      <point x="117" y="459"/>
      <point x="117" y="445" type="curve" smooth="yes"/>
    </contour>
    <contour>
      <point x="219" y="610" type="curve" smooth="yes"/>
      <point x="297" y="610"/>
      <point x="344" y="645"/>
      <point x="344" y="717" type="curve" smooth="yes"/>
      <point x="344" y="788"/>
      <point x="297" y="824"/>
      <point x="219" y="824" type="curve" smooth="yes"/>
      <point x="140" y="824"/>
      <point x="94" y="788"/>
      <point x="94" y="717" type="curve" smooth="yes"/>
      <point x="94" y="643"/>
      <point x="140" y="610"/>
    </contour>
  </outline>
</glyph>
<glyph name="p" format="2">
  <advance width="816"/>
  <unicode hex="0070"/>
  <outline>
    <contour>
      <point x="406" y="-223" type="line"/>
      <point x="406" y="-139" type="line"/>
      <point x="398" y="-139" type="line" smooth="yes"/>
      <point x="353" y="-139"/>
      <point x="323" y="-137"/>
      <point x="323" y="-131" type="curve" smooth="yes"/>
      <point x="323" y="393" type="line"/>
      <point x="322" y="398" type="line"/>
      <point x="291" y="572" type="line"/>
      <point x="44" y="572" type="line"/>
      <point x="44" y="471" type="line"/>
      <point x="52" y="469" type="line" smooth="yes"/>
      <point x="86" y="462"/>
      <point x="102" y="459"/>
      <point x="102" y="445" type="curve" smooth="yes"/>
      <point x="102" y="-74" type="line" smooth="yes"/>
      <point x="102" y="-124"/>
      <point x="84" y="-139"/>
      <point x="48" y="-139" type="curve" smooth="yes"/>
      <point x="44" y="-139" type="line"/>
      <point x="44" y="-223" type="line"/>
    </contour>
    <contour>
      <point x="506" y="-12" type="curve" smooth="yes"/>
      <point x="680" y="-12"/>
      <point x="775" y="121"/>
      <point x="775" y="293" type="curve" smooth="yes"/>
      <point x="775" y="464"/>
      <point x="693" y="583"/>
      <point x="520" y="583" type="curve" smooth="yes"/>
      <point x="394" y="583"/>
      <point x="326" y="502"/>
      <point x="274" y="365" type="curve"/>
      <point x="275" y="321" type="line"/>
      <point x="350" y="425"/>
      <point x="386" y="453"/>
      <point x="448" y="453" type="curve" smooth="yes"/>
      <point x="528" y="453"/>
      <point x="548" y="412"/>
      <point x="548" y="293" type="curve" smooth="yes"/>
      <point x="548" y="168"/>
      <point x="516" y="118"/>
      <point x="436" y="118" type="curve" smooth="yes"/>
      <point x="371" y="118"/>
      <point x="341" y="157"/>
      <point x="275" y="229" type="curve"/>
      <point x="274" y="195" type="line"/>
      <point x="315" y="68"/>
      <point x="390" y="-12"/>
    </contour>
  </outline>
</glyph>
<glyph name="sterling" format="2">
  <advance width="602"/>
  <unicode hex="00A3"/>
  <outline>
    <contour>
      <point x="24" y="-13" type="line"/>
      <point x="221" y="27"/>
      <point x="333" y="133"/>
      <point x="333" y="274" type="curve" smooth="yes"/>
      <point x="333" y="415"/>
      <point x="282" y="434"/>
      <point x="282" y="543" type="curve" smooth="yes"/>
      <point x="282" y="607"/>
      <point x="304" y="632"/>
      <point x="367" y="632" type="curve" smooth="yes"/>
      <point x="421" y="632"/>
      <point x="458" y="614"/>
      <point x="483" y="587" type="curve"/>
      <point x="478" y="606"/>
      <point x="439" y="678"/>
      <point x="404" y="680" type="curve"/>
      <point x="404" y="505" type="line"/>
      <point x="564" y="505" type="line"/>
      <point x="564" y="703" type="line"/>
      <point x="532" y="720"/>
      <point x="445" y="735"/>
      <point x="359" y="735" type="curve" smooth="yes"/>
      <point x="173" y="735"/>
      <point x="57" y="677"/>
      <point x="57" y="553" type="curve" smooth="yes"/>
      <point x="57" y="439"/>
      <point x="160" y="435"/>
      <point x="160" y="273" type="curve" smooth="yes"/>
      <point x="160" y="199"/>
      <point x="127" y="169"/>
      <point x="24" y="144" type="curve"/>
    </contour>
    <contour>
      <point x="422" y="-10" type="curve" smooth="yes"/>
      <point x="535" y="-10"/>
      <point x="580" y="109"/>
      <point x="602" y="235" type="curve"/>
      <point x="500" y="262" type="line"/>
      <point x="481" y="193"/>
      <point x="467" y="170"/>
      <point x="410" y="170" type="curve" smooth="yes"/>
      <point x="346" y="170"/>
      <point x="326" y="189"/>
      <point x="292" y="237" type="curve"/>
      <point x="252" y="247"/>
      <point x="225" y="176"/>
      <point x="249" y="171" type="curve"/>
      <point x="306" y="49"/>
      <point x="318" y="-10"/>
    </contour>
    <contour>
      <point x="24" y="420" type="line"/>
      <point x="24" y="309" type="line"/>
      <point x="474" y="309" type="line"/>
      <point x="474" y="420" type="line"/>
    </contour>
  </outline>
</glyph>
<glyph name="currency" format="2">
  <advance width="602"/>
  <unicode hex="00A4"/>
  <outline>
    <contour>
      <point x="402" y="373" type="curve" smooth="yes"/>
      <point x="402" y="305"/>
      <point x="368" y="276"/>
      <point x="301" y="276" type="curve" smooth="yes"/>
      <point x="235" y="276"/>
      <point x="200" y="306"/>
      <point x="200" y="373" type="curve" smooth="yes"/>
      <point x="200" y="441"/>
      <point x="235" y="471"/>
      <point x="301" y="471" type="curve" smooth="yes"/>
      <point x="368" y="471"/>
      <point x="402" y="441"/>
    </contour>
    <contour>
      <point x="61" y="373" type="curve" smooth="yes"/>
      <point x="61" y="261"/>
      <point x="187" y="147"/>
      <point x="301" y="147" type="curve" smooth="yes"/>
      <point x="415" y="147"/>
      <point x="541" y="261"/>
      <point x="541" y="373" type="curve" smooth="yes"/>
      <point x="541" y="487"/>
      <point x="415" y="601"/>
      <point x="301" y="601" type="curve" smooth="yes"/>
      <point x="187" y="601"/>
      <point x="61" y="487"/>
    </contour>
    <contour>
      <point x="2" y="563" type="line"/>
      <point x="125" y="447" type="line"/>
      <point x="225" y="535" type="line"/>
      <point x="95" y="658" type="line"/>
    </contour>
    <contour>
      <point x="600" y="563" type="line"/>
      <point x="507" y="658" type="line"/>
      <point x="377" y="535" type="line"/>
      <point x="477" y="447" type="line"/>
    </contour>
    <contour>
      <point x="2" y="184" type="line"/>
      <point x="95" y="89" type="line"/>
      <point x="225" y="211" type="line"/>
      <point x="125" y="299" type="line"/>
    </contour>
    <contour>
      <point x="600" y="184" type="line"/>
      <point x="477" y="299" type="line"/>
      <point x="377" y="211" type="line"/>
      <point x="507" y="89" type="line"/>
    </contour>
  </outline>
</glyph>
<glyph name="degree" format="2">
  <advance width="602"/>
  <unicode hex="00B0"/>
  <outline>
    <contour>
      <point x="414" y="547" type="curve" smooth="yes"/>
      <point x="414" y="472"/>
      <point x="372" y="440"/>
      <point x="301" y="440" type="curve" smooth="yes"/>
      <point x="229" y="440"/>
      <point x="188" y="472"/>
      <point x="188" y="547" type="curve" smooth="yes"/>
      <point x="188" y="622"/>
      <point x="229" y="655"/>
      <point x="301" y="655" type="curve" smooth="yes"/>
      <point x="373" y="655"/>
      <point x="414" y="622"/>
    </contour>
    <contour>
      <point x="59" y="547" type="curve" smooth="yes"/>
      <point x="59" y="407"/>
      <point x="159" y="325"/>
      <point x="301" y="325" type="curve" smooth="yes"/>
      <point x="443" y="325"/>
      <point x="543" y="407"/>
      <point x="543" y="547" type="curve" smooth="yes"/>
      <point x="543" y="687"/>
      <point x="443" y="769"/>
      <point x="301" y="769" type="curve" smooth="yes"/>
      <point x="159" y="769"/>
      <point x="59" y="687"/>
    </contour>
  </outline>
</glyph>
<glyph name="cedilla" format="2">
  <advance width="538"/>
  <unicode hex="00B8"/>
  <anchor x="297" y="34" name="_bottom"/>
  <outline>
    <contour>
      <point x="353" y="6" type="line"/>
      <point x="237" y="6" type="line"/>
      <point x="179" y="-145" type="line"/>
      <point x="208" y="-145" type="line" smooth="yes"/>
      <point x="287" y="-145"/>
      <point x="308" y="-163"/>
      <point x="308" y="-193" type="curve" smooth="yes"/>
      <point x="308" y="-223"/>
      <point x="294" y="-239"/>
      <point x="247" y="-239" type="curve" smooth="yes"/>
      <point x="192" y="-239"/>
      <point x="157" y="-208"/>
      <point x="142" y="-197" type="curve"/>
      <point x="91" y="-258" type="line"/>
      <point x="127" y="-291"/>
      <point x="178" y="-313"/>
      <point x="272" y="-313" type="curve" smooth="yes"/>
      <point x="378" y="-313"/>
      <point x="460" y="-284"/>
      <point x="460" y="-189" type="curve" smooth="yes"/>
      <point x="460" y="-113"/>
      <point x="391" y="-81"/>
      <point x="241" y="-77" type="curve"/>
      <point x="242" y="-96" type="line"/>
    </contour>
  </outline>
</glyph>
<glyph name="multiply" format="2">
  <advance width="602"/>
  <unicode hex="00D7"/>
  <outline>
    <contour>
      <point x="440" y="565" type="line"/>
      <point x="63" y="217" type="line"/>
      <point x="159" y="117" type="line"/>
      <point x="537" y="465" type="line"/>
    </contour>
    <contour>
      <point x="159" y="565" type="line"/>
      <point x="63" y="465" type="line"/>
      <point x="440" y="117" type="line"/>
      <point x="537" y="217" type="line"/>
    </contour>
  </outline>
</glyph>
<glyph name="Oslash" format="2">
  <advance width="903"/>
  <unicode hex="00D8"/>
  <anchor x="435" y="731" name="top"/>
  <outline>
    <contour>
      <point x="-19" y="-25" type="line"/>
      <point x="115" y="-25" type="line"/>
      <point x="922" y="735" type="line"/>
      <point x="788" y="735" type="line"/>
    </contour>
    <contour>
      <point x="452" y="-25" type="curve" smooth="yes"/>
      <point x="697" y="-25"/>
      <point x="855" y="97"/>
      <point x="855" y="355" type="curve" smooth="yes"/>
      <point x="855" y="592"/>
      <point x="678" y="735"/>
      <point x="452" y="735" type="curve" smooth="yes"/>
      <point x="206" y="735"/>
      <point x="48" y="612"/>
      <point x="48" y="355" type="curve" smooth="yes"/>
      <point x="48" y="117"/>
      <point x="225" y="-25"/>
    </contour>
    <contour>
      <point x="452" y="83" type="curve" smooth="yes"/>
      <point x="313" y="83"/>
      <point x="284" y="135"/>
      <point x="284" y="355" type="curve" smooth="yes"/>
      <point x="284" y="565"/>
      <point x="334" y="627"/>
      <point x="452" y="627" type="curve" smooth="yes"/>
      <point x="589" y="627"/>
      <point x="619" y="575"/>
      <point x="619" y="355" type="curve" smooth="yes"/>
      <point x="619" y="145"/>
      <point x="570" y="83"/>
    </contour>
  </outline>
</glyph>
<glyph name="germandbls" format="2">
  <advance width="837"/>
  <unicode hex="00DF"/>
  <outline>
    <contour>
      <point x="29" y="572" type="line"/>
      <point x="29" y="473" type="line"/>
      <point x="197" y="473" type="line"/>
      <point x="197" y="572" type="line"/>
    </contour>
    <contour>
      <point x="501" y="444" type="line"/>
      <point x="609" y="443"/>
      <point x="748" y="480"/>
      <point x="748" y="611" type="curve" smooth="yes"/>
      <point x="748" y="720"/>
      <point x="659" y="785"/>
      <point x="439" y="785" type="curve" smooth="yes"/>
      <point x="248" y="785"/>
      <point x="127" y="721"/>
      <point x="127" y="571" type="curve" smooth="yes"/>
      <point x="127" y="154" type="line" smooth="yes"/>
      <point x="127" y="103"/>
      <point x="106" y="84"/>
      <point x="64" y="84" type="curve" smooth="yes"/>
      <point x="37" y="84" type="line"/>
      <point x="37" y="0" type="line"/>
      <point x="349" y="0" type="line"/>
      <point x="349" y="567" type="line" smooth="yes"/>
      <point x="349" y="657"/>
      <point x="372" y="681"/>
      <point x="440" y="681" type="curve" smooth="yes"/>
      <point x="505" y="681"/>
      <point x="526" y="661"/>
      <point x="526" y="599" type="curve" smooth="yes"/>
      <point x="526" y="500"/>
      <point x="485" y="491"/>
      <point x="432" y="488" type="curve"/>
      <point x="432" y="380" type="line"/>
      <point x="434" y="380" type="line" smooth="yes"/>
      <point x="520" y="380"/>
      <point x="569" y="346"/>
      <point x="569" y="236" type="curve" smooth="yes"/>
      <point x="569" y="121"/>
      <point x="540" y="107"/>
      <point x="490" y="107" type="curve" smooth="yes"/>
      <point x="462" y="107"/>
      <point x="438" y="116"/>
      <point x="432" y="117" type="curve"/>
      <point x="432" y="5" type="line"/>
      <point x="451" y="-2"/>
      <point x="495" y="-10"/>
      <point x="554" y="-10" type="curve" smooth="yes"/>
      <point x="714" y="-10"/>
      <point x="799" y="63"/>
      <point x="799" y="216" type="curve" smooth="yes"/>
      <point x="799" y="363"/>
      <point x="670" y="422"/>
      <point x="520" y="438" type="curve"/>
      <point x="539" y="413" type="line"/>
      <point x="539" y="462" type="line"/>
    </contour>
  </outline>
</glyph>
<glyph name="icircumflex" format="2">
  <advance width="412"/>
  <unicode hex="00EE"/>
  <outline>
    <contour>
      <point x="279" y="870" type="line"/>
      <point x="426" y="671" type="line"/>
      <point x="426" y="618" type="line"/>
      <point x="351" y="618" type="line"/>
      <point x="170" y="726" type="line"/>
      <point x="231" y="725" type="line"/>
      <point x="57" y="618" type="line"/>
      <point x="-14" y="618" type="line"/>
      <point x="-14" y="671" type="line"/>
      <point x="134" y="870" type="line"/>
    </contour>
    <component base="dotlessi"/>
  </outline>
</glyph>
<glyph name="aogonek" format="2">
  <advance width="729"/>
  <unicode hex="0105"/>
  <outline>
    <contour>
      <point x="230" y="-150" type="curve" smooth="yes"/>
      <point x="230" y="-224"/>
      <point x="300" y="-252"/>
      <point x="412" y="-252" type="curve" smooth="yes"/>
      <point x="519" y="-252"/>
      <point x="569" y="-225"/>
      <point x="613" y="-184" type="curve"/>
      <point x="565" y="-129" type="line"/>
      <point x="545" y="-145"/>
      <point x="519" y="-170"/>
      <point x="480" y="-170" type="curve" smooth="yes"/>
      <point x="442" y="-170"/>
      <point x="421" y="-153"/>
      <point x="421" y="-120" type="curve" smooth="yes"/>
      <point x="421" y="-77"/>
      <point x="440" y="-70"/>
      <point x="571" y="7" type="curve"/>
      <point x="548" y="44" type="line"/>
      <point x="304" y="-51"/>
      <point x="230" y="-70"/>
    </contour>
    <contour>
      <point x="698" y="0" type="line"/>
      <point x="698" y="95" type="line"/>
      <point x="689" y="97" type="line" smooth="yes"/>
      <point x="655" y="104"/>
      <point x="640" y="107"/>
      <point x="640" y="122" type="curve" smooth="yes"/>
      <point x="640" y="406" type="line" smooth="yes"/>
      <point x="640" y="522"/>
      <point x="545" y="584"/>
      <point x="360" y="584" type="curve" smooth="yes"/>
      <point x="211" y="584"/>
      <point x="114" y="538"/>
      <point x="78" y="522" type="curve"/>
      <point x="78" y="372" type="line"/>
      <point x="254" y="372" type="line"/>
      <point x="254" y="501" type="line"/>
      <point x="196" y="510"/>
      <point x="180" y="465"/>
      <point x="202" y="466" type="curve"/>
      <point x="216" y="471"/>
      <point x="266" y="482"/>
      <point x="339" y="482" type="curve" smooth="yes"/>
      <point x="418" y="482"/>
      <point x="423" y="461"/>
      <point x="423" y="448" type="curve" smooth="yes"/>
      <point x="423" y="109" type="line"/>
      <point x="427" y="117" type="line"/>
      <point x="453" y="0" type="line"/>
    </contour>
    <contour>
      <point x="46" y="135" type="curve" smooth="yes"/>
      <point x="46" y="26"/>
      <point x="103" y="-12"/>
      <point x="233" y="-12" type="curve" smooth="yes"/>
      <point x="338" y="-12"/>
      <point x="393" y="18"/>
      <point x="449" y="134" type="curve"/>
      <point x="429" y="149" type="line"/>
      <point x="380" y="93"/>
      <point x="347" y="89"/>
      <point x="314" y="89" type="curve" smooth="yes"/>
      <point x="270" y="89"/>
      <point x="247" y="98"/>
      <point x="247" y="152" type="curve" smooth="yes"/>
      <point x="247" y="196"/>
      <point x="251" y="236"/>
      <point x="429" y="267" type="curve"/>
      <point x="429" y="346" type="line"/>
      <point x="128" y="300"/>
      <point x="46" y="255"/>
    </contour>
  </outline>
</glyph>
<glyph name="Hbar" format="2">
  <advance width="922"/>
  <unicode hex="0126"/>
  <outline>
    <contour>
      <point x="22" y="444" type="line"/>
      <point x="901" y="444" type="line"/>
      <point x="901" y="523" type="line"/>
      <point x="22" y="523" type="line"/>
    </contour>
    <contour>
      <point x="217" y="358" type="line"/>
      <point x="217" y="279" type="line"/>
      <point x="665" y="279" type="line"/>
      <point x="665" y="358" type="line"/>
    </contour>
    <contour>
      <point x="42" y="0" type="line"/>
      <point x="407" y="0" type="line"/>
      <point x="407" y="101" type="line"/>
      <point x="398" y="101" type="line" smooth="yes"/>
      <point x="375" y="101"/>
      <point x="345" y="104"/>
      <point x="345" y="111" type="curve" smooth="yes"/>
      <point x="345" y="600" type="line" smooth="yes"/>
      <point x="345" y="607"/>
      <point x="375" y="610"/>
      <point x="398" y="610" type="curve" smooth="yes"/>
      <point x="407" y="610" type="line"/>
      <point x="407" y="710" type="line"/>
      <point x="42" y="710" type="line"/>
      <point x="42" y="610" type="line"/>
      <point x="54" y="610" type="line" smooth="yes"/>
      <point x="86" y="610"/>
      <point x="111" y="603"/>
      <point x="111" y="574" type="curve" smooth="yes"/>
      <point x="111" y="137" type="line" smooth="yes"/>
      <point x="111" y="108"/>
      <point x="86" y="101"/>
      <point x="54" y="101" type="curve" smooth="yes"/>
      <point x="42" y="101" type="line"/>
    </contour>
    <contour>
      <point x="516" y="0" type="line"/>
      <point x="881" y="0" type="line"/>
      <point x="881" y="101" type="line"/>
      <point x="869" y="101" type="line" smooth="yes"/>
      <point x="836" y="101"/>
      <point x="811" y="108"/>
      <point x="811" y="137" type="curve" smooth="yes"/>
      <point x="811" y="574" type="line" smooth="yes"/>
      <point x="811" y="603"/>
      <point x="836" y="610"/>
      <point x="869" y="610" type="curve" smooth="yes"/>
      <point x="881" y="610" type="line"/>
      <point x="881" y="710" type="line"/>
      <point x="516" y="710" type="line"/>
      <point x="516" y="610" type="line"/>
      <point x="524" y="610" type="line" smooth="yes"/>
      <point x="547" y="610"/>
      <point x="577" y="607"/>
      <point x="577" y="600" type="curve" smooth="yes"/>
      <point x="577" y="111" type="line" smooth="yes"/>
      <point x="577" y="104"/>
      <point x="547" y="101"/>
      <point x="524" y="101" type="curve" smooth="yes"/>
      <point x="516" y="101" type="line"/>
    </contour>
  </outline>
</glyph>
<glyph name="itilde" format="2">
  <advance width="412"/>
  <unicode hex="0129"/>
  <outline>
    <contour>
      <point x="277" y="615" type="curve" smooth="yes"/>
      <point x="373" y="615"/>
      <point x="414" y="693"/>
      <point x="428" y="861" type="curve"/>
      <point x="337" y="873" type="line"/>
      <point x="325" y="800"/>
      <point x="324" y="766"/>
      <point x="292" y="766" type="curve" smooth="yes"/>
      <point x="236" y="766"/>
      <point x="230" y="868"/>
      <point x="123" y="868" type="curve" smooth="yes"/>
      <point x="14" y="868"/>
      <point x="-14" y="781"/>
      <point x="-27" y="627" type="curve"/>
      <point x="64" y="614" type="line"/>
      <point x="73" y="686"/>
      <point x="72" y="720"/>
      <point x="106" y="720" type="curve" smooth="yes"/>
      <point x="155" y="720"/>
      <point x="160" y="615"/>
    </contour>
    <component base="dotlessi"/>
  </outline>
</glyph>
<glyph name="imacron" format="2">
  <advance width="412"/>
  <unicode hex="012B"/>
  <outline>
    <contour>
      <point x="-11" y="787" type="line"/>
      <point x="-11" y="644" type="line"/>
      <point x="404" y="644" type="line"/>
      <point x="404" y="787" type="line"/>
    </contour>
    <component base="dotlessi"/>
  </outline>
</glyph>
<glyph name="ibreve" format="2">
  <advance width="412"/>
  <unicode hex="012D"/>
  <outline>
    <contour>
      <point x="203" y="621" type="curve" smooth="yes"/>
      <point x="61" y="621"/>
      <point x="-4" y="696"/>
      <point x="-3" y="843" type="curve"/>
      <point x="107" y="843" type="line"/>
      <point x="110" y="789"/>
      <point x="122" y="768"/>
      <point x="206" y="768" type="curve" smooth="yes"/>
      <point x="290" y="768"/>
      <point x="301" y="789"/>
      <point x="305" y="843" type="curve"/>
      <point x="409" y="843" type="line"/>
      <point x="410" y="696"/>
      <point x="345" y="621"/>
    </contour>
    <component base="dotlessi"/>
  </outline>
</glyph>
<glyph name="Lslash" format="2">
  <advance width="779"/>
  <unicode hex="0141"/>
  <outline>
    <contour>
      <point x="23" y="169" type="line"/>
      <point x="23" y="278" type="line"/>
      <point x="573" y="563" type="line"/>
      <point x="573" y="454" type="line"/>
    </contour>
    <component base="L" xOffset="14"/>
  </outline>
</glyph>
<glyph name="OE" format="2">
  <advance width="1230"/>
  <unicode hex="0152"/>
  <outline>
    <contour>
      <point x="469" y="99" type="line" smooth="yes"/>
      <point x="347" y="99"/>
      <point x="292" y="168"/>
      <point x="292" y="351" type="curve" smooth="yes"/>
      <point x="292" y="534"/>
      <point x="347" y="611"/>
      <point x="469" y="611" type="curve" smooth="yes"/>
      <point x="565" y="611" type="line"/>
      <point x="565" y="99" type="line"/>
    </contour>
    <contour>
      <point x="783" y="408" type="curve"/>
      <point x="783" y="322" type="line"/>
      <point x="876" y="313"/>
      <point x="967" y="306"/>
      <point x="1060" y="298" type="curve"/>
      <point x="1060" y="433" type="line"/>
      <point x="967" y="425"/>
      <point x="876" y="417"/>
    </contour>
    <contour>
      <point x="1174" y="0" type="line"/>
      <point x="1174" y="224" type="line"/>
      <point x="1062" y="224" type="line"/>
      <point x="1044" y="143" type="line" smooth="yes"/>
      <point x="1037" y="107"/>
      <point x="1007" y="98"/>
      <point x="923" y="98" type="curve" smooth="yes"/>
      <point x="799" y="98" type="line"/>
      <point x="799" y="612" type="line"/>
      <point x="932" y="612" type="line" smooth="yes"/>
      <point x="995" y="612"/>
      <point x="1030" y="603"/>
      <point x="1036" y="567" type="curve" smooth="yes"/>
      <point x="1047" y="511" type="line"/>
      <point x="1157" y="511" type="line"/>
      <point x="1157" y="710" type="line"/>
      <point x="436" y="710" type="line" smooth="yes"/>
      <point x="207" y="710"/>
      <point x="48" y="598"/>
      <point x="48" y="351" type="curve" smooth="yes"/>
      <point x="48" y="103"/>
      <point x="207" y="0"/>
      <point x="436" y="0" type="curve" smooth="yes"/>
    </contour>
  </outline>
</glyph>
<glyph name="tbar" format="2">
  <advance width="556"/>
  <unicode hex="0167"/>
  <outline>
    <contour>
      <point x="22" y="261" type="line"/>
      <point x="514" y="261" type="line"/>
      <point x="514" y="358" type="line"/>
      <point x="22" y="358" type="line"/>
    </contour>
    <component base="t"/>
  </outline>
</glyph>
<glyph name="icaron" format="2">
  <advance width="412"/>
  <unicode hex="01D0"/>
  <outline>
    <contour>
      <point x="125" y="630" type="line"/>
      <point x="-23" y="830" type="line"/>
      <point x="-23" y="883" type="line"/>
      <point x="52" y="883" type="line"/>
      <point x="234" y="775" type="line"/>
      <point x="173" y="775" type="line"/>
      <point x="347" y="883" type="line"/>
      <point x="418" y="883" type="line"/>
      <point x="418" y="830" type="line"/>
      <point x="270" y="630" type="line"/>
    </contour>
    <component base="dotlessi"/>
  </outline>
</glyph>
<glyph name="Oogonek" format="2">
  <advance width="903"/>
  <unicode hex="01EA"/>
  <outline>
    <contour>
      <point x="452" y="83" type="curve" smooth="yes"/>
      <point x="339" y="83"/>
      <point x="292" y="145"/>
      <point x="292" y="355" type="curve" smooth="yes"/>
      <point x="292" y="565"/>
      <point x="340" y="627"/>
      <point x="452" y="627" type="curve" smooth="yes"/>
      <point x="564" y="627"/>
      <point x="611" y="565"/>
      <point x="611" y="355" type="curve" smooth="yes"/>
      <point x="611" y="145"/>
      <point x="564" y="83"/>
    </contour>
    <contour>
      <point x="499" y="-252" type="curve" smooth="yes"/>
      <point x="606" y="-252"/>
      <point x="657" y="-225"/>
      <point x="700" y="-184" type="curve"/>
      <point x="652" y="-129" type="line"/>
      <point x="632" y="-145"/>
      <point x="606" y="-170"/>
      <point x="567" y="-170" type="curve" smooth="yes"/>
      <point x="529" y="-170"/>
      <point x="508" y="-155"/>
      <point x="508" y="-120" type="curve" smooth="yes"/>
      <point x="508" y="-52"/>
      <point x="661" y="-12"/>
      <point x="748" y="72" type="curve" smooth="yes"/>
      <point x="817" y="136"/>
      <point x="855" y="229"/>
      <point x="855" y="355" type="curve" smooth="yes"/>
      <point x="855" y="612"/>
      <point x="697" y="735"/>
      <point x="452" y="735" type="curve" smooth="yes"/>
      <point x="206" y="735"/>
      <point x="48" y="612"/>
      <point x="48" y="355" type="curve" smooth="yes"/>
      <point x="48" y="97"/>
      <point x="206" y="-25"/>
      <point x="452" y="-25" type="curve" smooth="yes"/>
      <point x="509" y="-25"/>
      <point x="560" y="-18"/>
      <point x="607" y="-5" type="curve"/>
      <point x="637" y="30" type="line"/>
      <point x="393" y="-52"/>
      <point x="317" y="-68"/>
      <point x="317" y="-150" type="curve" smooth="yes"/>
      <point x="317" y="-224"/>
      <point x="387" y="-252"/>
    </contour>
  </outline>
</glyph>
<glyph name="oogonek" format="2">
  <advance width="762"/>
  <unicode hex="01EB"/>
  <outline>
    <contour>
      <point x="381" y="91" type="curve" smooth="yes"/>
      <point x="291" y="91"/>
      <point x="268" y="134"/>
      <point x="268" y="284" type="curve" smooth="yes"/>
      <point x="268" y="436"/>
      <point x="291" y="478"/>
      <point x="381" y="478" type="curve" smooth="yes"/>
      <point x="470" y="478"/>
      <point x="494" y="436"/>
      <point x="494" y="284" type="curve" smooth="yes"/>
      <point x="494" y="134"/>
      <point x="470" y="91"/>
    </contour>
    <contour>
      <point x="432" y="-252" type="curve" smooth="yes"/>
      <point x="530" y="-252"/>
      <point x="580" y="-225"/>
      <point x="624" y="-184" type="curve"/>
      <point x="576" y="-129" type="line"/>
      <point x="556" y="-145"/>
      <point x="530" y="-170"/>
      <point x="491" y="-170" type="curve" smooth="yes"/>
      <point x="453" y="-170"/>
      <point x="432" y="-153"/>
      <point x="432" y="-120" type="curve" smooth="yes"/>
      <point x="432" y="-59"/>
      <point x="524" y="-50"/>
      <point x="630" y="60" type="curve" smooth="yes"/>
      <point x="693" y="121"/>
      <point x="721" y="193"/>
      <point x="721" y="284" type="curve" smooth="yes"/>
      <point x="721" y="474"/>
      <point x="602" y="584"/>
      <point x="381" y="584" type="curve" smooth="yes"/>
      <point x="160" y="584"/>
      <point x="41" y="474"/>
      <point x="41" y="284" type="curve" smooth="yes"/>
      <point x="41" y="95"/>
      <point x="160" y="-15"/>
      <point x="381" y="-15" type="curve" smooth="yes"/>
      <point x="444" y="-15"/>
      <point x="498" y="-6"/>
      <point x="544" y="13" type="curve"/>
      <point x="559" y="44" type="line"/>
      <point x="315" y="-51"/>
      <point x="241" y="-70"/>
      <point x="241" y="-150" type="curve" smooth="yes"/>
      <point x="241" y="-224"/>
      <point x="311" y="-252"/>
    </contour>
  </outline>
</glyph>
<glyph name="dotaccent" format="2">
  <advance width="538"/>
  <unicode hex="02D9"/>
  <anchor x="269" y="526" name="_top"/>
  <outline>
    <contour>
      <point x="269" y="623" type="curve" smooth="yes"/>
      <point x="347" y="623"/>
      <point x="393" y="658"/>
      <point x="393" y="730" type="curve" smooth="yes"/>
      <point x="393" y="801"/>
      <point x="347" y="837"/>
      <point x="269" y="837" type="curve" smooth="yes"/>
      <point x="190" y="837"/>
      <point x="143" y="801"/>
      <point x="143" y="730" type="curve" smooth="yes"/>
      <point x="143" y="657"/>
      <point x="190" y="623"/>
    </contour>
  </outline>
</glyph>
<glyph name="tilde" format="2">
  <advance width="538"/>
  <unicode hex="02DC"/>
  <anchor x="254" y="516" name="_top"/>
  <outline>
    <contour>
      <point x="352" y="615" type="curve" smooth="yes"/>
      <point x="451" y="615"/>
      <point x="487" y="693"/>
      <point x="509" y="861" type="curve"/>
      <point x="418" y="873" type="line"/>
      <point x="404" y="800"/>
      <point x="402" y="766"/>
      <point x="367" y="766" type="curve" smooth="yes"/>
      <point x="311" y="766"/>
      <point x="292" y="868"/>
      <point x="185" y="868" type="curve" smooth="yes"/>
      <point x="78" y="868"/>
      <point x="49" y="781"/>
      <point x="29" y="627" type="curve"/>
      <point x="120" y="614" type="line"/>
      <point x="132" y="686"/>
      <point x="132" y="720"/>
      <point x="169" y="720" type="curve" smooth="yes"/>
      <point x="218" y="720"/>
      <point x="236" y="615"/>
    </contour>
  </outline>
</glyph>
<glyph name="Germandbls" format="2">
  <advance width="985"/>
  <unicode hex="1E9E"/>
  <outline>
    <contour>
      <point x="628" y="87" type="curve" smooth="yes"/>
      <point x="562" y="87"/>
      <point x="542" y="142"/>
      <point x="532" y="217" type="curve"/>
      <point x="423" y="217" type="line"/>
      <point x="423" y="0" type="line"/>
      <point x="516" y="0" type="line"/>
      <point x="534" y="130" type="line"/>
      <point x="523" y="164"/>
      <point x="515" y="172"/>
      <point x="503" y="172" type="curve"/>
      <point x="517" y="39"/>
      <point x="555" y="-14"/>
      <point x="711" y="-14" type="curve" smooth="yes"/>
      <point x="877" y="-14"/>
      <point x="942" y="49"/>
      <point x="942" y="182" type="curve" smooth="yes"/>
      <point x="942" y="311"/>
      <point x="856" y="354"/>
      <point x="655" y="418" type="curve"/>
      <point x="669" y="354" type="line"/>
      <point x="864" y="568" type="line"/>
      <point x="864" y="710" type="line"/>
      <point x="392" y="710" type="line" smooth="yes"/>
      <point x="176" y="710"/>
      <point x="104" y="613"/>
      <point x="104" y="472" type="curve" smooth="yes"/>
      <point x="104" y="137" type="line" smooth="yes"/>
      <point x="104" y="108"/>
      <point x="80" y="101"/>
      <point x="47" y="101" type="curve" smooth="yes"/>
      <point x="35" y="101" type="line"/>
      <point x="35" y="0" type="line"/>
      <point x="338" y="0" type="line"/>
      <point x="338" y="464" type="line" smooth="yes"/>
      <point x="338" y="563"/>
      <point x="362" y="606"/>
      <point x="493" y="606" type="curve" smooth="yes"/>
      <point x="698" y="606" type="line"/>
      <point x="697" y="612"/>
      <point x="681" y="622"/>
      <point x="673" y="619" type="curve"/>
      <point x="518" y="448" type="line"/>
      <point x="518" y="355" type="line"/>
      <point x="663" y="306"/>
      <point x="691" y="284"/>
      <point x="691" y="189" type="curve" smooth="yes"/>
      <point x="691" y="110"/>
      <point x="677" y="87"/>
    </contour>
  </outline>
</glyph>
<glyph name="quoteright" format="2">
  <advance width="385"/>
  <unicode hex="2019"/>
  <outline>
    <contour>
      <point x="124" y="376" type="line"/>
      <point x="235" y="413"/>
      <point x="334" y="470"/>
      <point x="334" y="653" type="curve" smooth="yes"/>
      <point x="334" y="752"/>
      <point x="280" y="791"/>
      <point x="199" y="791" type="curve" smooth="yes"/>
      <point x="118" y="791"/>
      <point x="76" y="754"/>
      <point x="76" y="692" type="curve" smooth="yes"/>
      <point x="76" y="631"/>
      <point x="110" y="600"/>
      <point x="180" y="600" type="curve" smooth="yes"/>
      <point x="202" y="600"/>
      <point x="229" y="605"/>
      <point x="250" y="620" type="curve"/>
      <point x="222" y="631" type="line"/>
      <point x="222" y="516"/>
      <point x="159" y="502"/>
      <point x="53" y="483" type="curve"/>
    </contour>
  </outline>
</glyph>
<glyph name="won" format="2">
  <advance width="602"/>
  <unicode hex="20A9"/>
  <outline>
    <contour>
      <point x="13" y="710" type="line"/>
      <point x="13" y="617" type="line"/>
      <point x="21" y="617" type="line" smooth="yes"/>
      <point x="37" y="617"/>
      <point x="53" y="614"/>
      <point x="55" y="580" type="curve" smooth="yes"/>
      <point x="96" y="0" type="line"/>
      <point x="251" y="0" type="line"/>
      <point x="315" y="703" type="line"/>
      <point x="286" y="707" type="line"/>
      <point x="362" y="0" type="line"/>
      <point x="516" y="0" type="line"/>
      <point x="544" y="574" type="line" smooth="yes"/>
      <point x="545" y="608"/>
      <point x="555" y="617"/>
      <point x="579" y="617" type="curve" smooth="yes"/>
      <point x="587" y="617" type="line"/>
      <point x="587" y="710" type="line"/>
      <point x="461" y="710" type="line"/>
      <point x="461" y="617" type="line"/>
      <point x="465" y="617" type="line" smooth="yes"/>
      <point x="484" y="617"/>
      <point x="490" y="612"/>
      <point x="490" y="599" type="curve"/>
      <point x="466" y="8" type="line"/>
      <point x="484" y="10" type="line"/>
      <point x="404" y="710" type="line"/>
      <point x="268" y="710" type="line"/>
      <point x="199" y="12" type="line"/>
      <point x="220" y="15" type="line"/>
      <point x="181" y="607" type="line"/>
      <point x="181" y="614"/>
      <point x="190" y="617"/>
      <point x="206" y="617" type="curve" smooth="yes"/>
      <point x="210" y="617" type="line"/>
      <point x="210" y="710" type="line"/>
    </contour>
    <contour>
      <point x="-6" y="512" type="line"/>
      <point x="-6" y="418" type="line"/>
      <point x="183" y="418" type="line"/>
      <point x="177" y="440" type="line"/>
      <point x="256" y="491" type="line"/>
      <point x="263" y="512" type="line"/>
    </contour>
    <contour>
      <point x="423" y="491" type="line"/>
      <point x="496" y="440" type="line"/>
      <point x="496" y="418" type="line"/>
      <point x="608" y="418" type="line"/>
      <point x="608" y="512" type="line"/>
      <point x="417" y="512" type="line"/>
    </contour>
    <contour>
      <point x="240" y="205" type="line"/>
      <point x="372" y="205" type="line"/>
      <point x="359" y="225" type="line"/>
      <point x="303" y="262" type="line"/>
      <point x="251" y="225" type="line"/>
    </contour>
    <contour>
      <point x="118" y="300" type="line"/>
      <point x="-6" y="300" type="line"/>
      <point x="-6" y="206" type="line"/>
      <point x="130" y="206" type="line"/>
    </contour>
    <contour>
      <point x="496" y="206" type="line"/>
      <point x="608" y="206" type="line"/>
      <point x="608" y="300" type="line"/>
      <point x="501" y="300" type="line"/>
    </contour>
  </outline>
</glyph>
<glyph name="kip" format="2">
  <advance width="602"/>
  <unicode hex="20AD"/>
  <outline>
    <contour>
      <point x="13" y="422" type="line"/>
      <point x="13" y="327" type="line"/>
      <point x="576" y="327" type="line"/>
      <point x="576" y="422" type="line"/>
    </contour>
    <contour>
      <point x="18" y="0" type="line"/>
      <point x="275" y="0" type="line"/>
      <point x="275" y="95" type="line"/>
      <point x="272" y="95" type="line" smooth="yes"/>
      <point x="255" y="95"/>
      <point x="244" y="98"/>
      <point x="244" y="105" type="curve" smooth="yes"/>
      <point x="244" y="605" type="line" smooth="yes"/>
      <point x="244" y="612"/>
      <point x="258" y="615"/>
      <point x="285" y="615" type="curve" smooth="yes"/>
      <point x="290" y="615" type="line"/>
      <point x="290" y="710" type="line"/>
      <point x="18" y="710" type="line"/>
      <point x="18" y="615" type="line"/>
      <point x="25" y="615" type="line" smooth="yes"/>
      <point x="59" y="615"/>
      <point x="68" y="608"/>
      <point x="68" y="579" type="curve" smooth="yes"/>
      <point x="68" y="131" type="line" smooth="yes"/>
      <point x="68" y="102"/>
      <point x="59" y="95"/>
      <point x="25" y="95" type="curve" smooth="yes"/>
      <point x="18" y="95" type="line"/>
    </contour>
    <contour>
      <point x="595" y="95" type="line"/>
      <point x="593" y="95" type="line" smooth="yes"/>
      <point x="569" y="95"/>
      <point x="561" y="100"/>
      <point x="547" y="128" type="curve" smooth="yes"/>
      <point x="404" y="414" type="line"/>
      <point x="349" y="341" type="line"/>
      <point x="521" y="586" type="line" smooth="yes"/>
      <point x="539" y="611"/>
      <point x="549" y="615"/>
      <point x="574" y="615" type="curve" smooth="yes"/>
      <point x="582" y="615" type="line"/>
      <point x="582" y="710" type="line"/>
      <point x="372" y="710" type="line"/>
      <point x="372" y="615" type="line"/>
      <point x="379" y="615" type="line" smooth="yes"/>
      <point x="408" y="615"/>
      <point x="418" y="612"/>
      <point x="418" y="605" type="curve"/>
      <point x="245" y="370" type="line"/>
      <point x="250" y="360" type="line"/>
      <point x="370" y="105" type="line"/>
      <point x="370" y="98"/>
      <point x="364" y="95"/>
      <point x="342" y="95" type="curve" smooth="yes"/>
      <point x="338" y="95" type="line"/>
      <point x="338" y="0" type="line"/>
      <point x="595" y="0" type="line"/>
    </contour>
  </outline>
</glyph>
<glyph name="guarani" format="2">
  <advance width="602"/>
  <unicode hex="20B2"/>
  <outline>
    <contour>
      <point x="268" y="790" type="line"/>
      <point x="268" y="669" type="line"/>
      <point x="303" y="659" type="line"/>
      <point x="303" y="50" type="line"/>
      <point x="268" y="39" type="line"/>
      <point x="268" y="-120" type="line"/>
      <point x="385" y="-120" type="line"/>
      <point x="385" y="40" type="line"/>
      <point x="351" y="50" type="line"/>
      <point x="351" y="655" type="line"/>
      <point x="385" y="673" type="line"/>
      <point x="385" y="790" type="line"/>
    </contour>
    <contour>
      <point x="329" y="10" type="curve" smooth="yes"/>
      <point x="460" y="10"/>
      <point x="533" y="45"/>
      <point x="573" y="72" type="curve"/>
      <point x="573" y="223" type="line" smooth="yes"/>
      <point x="573" y="252"/>
      <point x="585" y="259"/>
      <point x="603" y="259" type="curve" smooth="yes"/>
      <point x="607" y="259" type="line"/>
      <point x="607" y="353" type="line"/>
      <point x="411" y="353" type="line"/>
      <point x="411" y="259" type="line"/>
      <point x="411" y="259" type="line"/>
      <point x="411" y="259"/>
      <point x="411" y="252"/>
      <point x="411" y="223" type="curve" smooth="yes"/>
      <point x="411" y="105" type="line"/>
      <point x="397" y="97"/>
      <point x="380" y="94"/>
      <point x="349" y="94" type="curve" smooth="yes"/>
      <point x="236" y="94"/>
      <point x="217" y="161"/>
      <point x="217" y="355" type="curve" smooth="yes"/>
      <point x="217" y="544"/>
      <point x="229" y="616"/>
      <point x="360" y="616" type="curve" smooth="yes"/>
      <point x="414" y="616"/>
      <point x="448" y="608"/>
      <point x="479" y="561" type="curve"/>
      <point x="484" y="582"/>
      <point x="454" y="639"/>
      <point x="422" y="656" type="curve"/>
      <point x="422" y="490" type="line"/>
      <point x="580" y="490" type="line"/>
      <point x="580" y="660" type="line"/>
      <point x="540" y="680"/>
      <point x="469" y="700"/>
      <point x="360" y="700" type="curve" smooth="yes"/>
      <point x="108" y="700"/>
      <point x="15" y="577"/>
      <point x="15" y="355" type="curve" smooth="yes"/>
      <point x="15" y="129"/>
      <point x="104" y="10"/>
    </contour>
  </outline>
</glyph>
<glyph name="uni20B4" format="2">
  <advance width="602"/>
  <unicode hex="20B4"/>
  <outline>
    <contour>
      <point x="16" y="499" type="line"/>
      <point x="16" y="402" type="line"/>
      <point x="586" y="402" type="line"/>
      <point x="586" y="499" type="line"/>
    </contour>
    <contour>
      <point x="16" y="332" type="line"/>
      <point x="16" y="235" type="line"/>
      <point x="586" y="235" type="line"/>
      <point x="586" y="332" type="line"/>
    </contour>
    <contour>
      <point x="315" y="730" type="curve" smooth="yes"/>
      <point x="201" y="730"/>
      <point x="129" y="696"/>
      <point x="93" y="671" type="curve"/>
      <point x="93" y="558" type="line"/>
      <point x="243" y="558" type="line"/>
      <point x="243" y="672" type="line"/>
      <point x="215" y="669"/>
      <point x="173" y="615"/>
      <point x="179" y="603" type="curve"/>
      <point x="203" y="631"/>
      <point x="232" y="648"/>
      <point x="288" y="648" type="curve" smooth="yes"/>
      <point x="343" y="648"/>
      <point x="362" y="637"/>
      <point x="362" y="585" type="curve" smooth="yes"/>
      <point x="362" y="526"/>
      <point x="333" y="500"/>
      <point x="286" y="464" type="curve"/>
      <point x="467" y="449" type="line"/>
      <point x="510" y="480"/>
      <point x="547" y="517"/>
      <point x="547" y="587" type="curve" smooth="yes"/>
      <point x="547" y="692"/>
      <point x="442" y="730"/>
    </contour>
    <contour>
      <point x="326" y="-10" type="curve" smooth="yes"/>
      <point x="446" y="-10"/>
      <point x="527" y="26"/>
      <point x="563" y="48" type="curve"/>
      <point x="563" y="175" type="line"/>
      <point x="412" y="175" type="line"/>
      <point x="412" y="64" type="line"/>
      <point x="441" y="47"/>
      <point x="486" y="105"/>
      <point x="480" y="124" type="curve"/>
      <point x="445" y="94"/>
      <point x="414" y="73"/>
      <point x="349" y="73" type="curve" smooth="yes"/>
      <point x="286" y="73"/>
      <point x="258" y="84"/>
      <point x="258" y="148" type="curve" smooth="yes"/>
      <point x="258" y="209"/>
      <point x="280" y="246"/>
      <point x="327" y="278" type="curve"/>
      <point x="131" y="283" type="line"/>
      <point x="92" y="247"/>
      <point x="67" y="211"/>
      <point x="67" y="148" type="curve" smooth="yes"/>
      <point x="67" y="23"/>
      <point x="180" y="-10"/>
    </contour>
  </outline>
</glyph>
<glyph name="ruble" format="2">
  <advance width="602"/>
  <unicode hex="20BD"/>
  <outline>
    <contour>
      <point x="18" y="415" type="line"/>
      <point x="302" y="415" type="line" smooth="yes"/>
      <point x="374" y="415"/>
      <point x="406" y="437"/>
      <point x="406" y="520" type="curve" smooth="yes"/>
      <point x="406" y="603"/>
      <point x="374" y="619"/>
      <point x="308" y="619" type="curve" smooth="yes"/>
      <point x="281" y="619" type="line"/>
      <point x="281" y="105" type="line" smooth="yes"/>
      <point x="281" y="98"/>
      <point x="299" y="95"/>
      <point x="335" y="95" type="curve" smooth="yes"/>
      <point x="345" y="95" type="line"/>
      <point x="345" y="0" type="line"/>
      <point x="33" y="0" type="line"/>
      <point x="33" y="95" type="line"/>
      <point x="41" y="95" type="line" smooth="yes"/>
      <point x="72" y="95"/>
      <point x="99" y="102"/>
      <point x="99" y="131" type="curve" smooth="yes"/>
      <point x="99" y="579" type="line" smooth="yes"/>
      <point x="99" y="608"/>
      <point x="72" y="615"/>
      <point x="41" y="615" type="curve" smooth="yes"/>
      <point x="33" y="615" type="line"/>
      <point x="33" y="710" type="line"/>
      <point x="361" y="710" type="line" smooth="yes"/>
      <point x="501" y="710"/>
      <point x="590" y="654"/>
      <point x="590" y="523" type="curve" smooth="yes"/>
      <point x="590" y="400"/>
      <point x="496" y="328"/>
      <point x="356" y="328" type="curve" smooth="yes"/>
      <point x="18" y="328" type="line"/>
    </contour>
    <contour>
      <point x="438" y="167" type="line"/>
      <point x="18" y="167" type="line"/>
      <point x="18" y="245" type="line"/>
      <point x="438" y="245" type="line"/>
    </contour>
  </outline>
</glyph>
<glyph name="numero" format="2">
  <advance width="1469"/>
  <unicode hex="2116"/>
  <outline>
    <contour>
      <point x="931" y="210" type="line"/>
      <point x="1382" y="210" type="line"/>
      <point x="1382" y="104" type="line"/>
      <point x="931" y="104" type="line"/>
    </contour>
    <component base="N"/>
    <component base="ordmasculine" xOffset="833"/>
  </outline>
</glyph>
<glyph name="minus" format="2">
  <advance width="602"/>
  <unicode hex="2212"/>
  <outline>
    <contour>
      <point x="557" y="406" type="line"/>
      <point x="45" y="406" type="line"/>
      <point x="45" y="254" type="line"/>
      <point x="557" y="254" type="line"/>
    </contour>
  </outline>
</glyph>
<glyph name="uni25B4" format="2">
  <advance width="694"/>
  <unicode hex="25B4"/>
  <outline>
    <contour>
      <point x="59" y="91" type="line"/>
      <point x="634" y="91" type="line"/>
      <point x="346" y="464" type="line"/>
    </contour>
  </outline>
</glyph>
<glyph name="lozenge" format="2">
  <advance width="761"/>
  <unicode hex="25CA"/>
  <outline>
    <contour>
      <point x="362" y="78" type="line"/>
      <point x="399" y="78" type="line"/>
      <point x="146" y="368" type="line"/>
      <point x="144" y="339" type="line"/>
      <point x="399" y="633" type="line"/>
      <point x="362" y="633" type="line"/>
      <point x="617" y="339" type="line"/>
      <point x="615" y="368" type="line"/>
    </contour>
    <contour>
      <point x="337" y="0" type="line"/>
      <point x="425" y="0" type="line"/>
      <point x="697" y="322" type="line"/>
      <point x="697" y="388" type="line"/>
      <point x="425" y="710" type="line"/>
      <point x="337" y="710" type="line"/>
      <point x="65" y="388" type="line"/>
      <point x="65" y="322" type="line"/>
    </contour>
  </outline>
</glyph>
<glyph name="f_f" format="2">
  <advance width="1016"/>
  <unicode hex="FB00"/>
  <outline>
    <contour>
      <point x="29" y="572" type="line"/>
      <point x="29" y="473" type="line"/>
      <point x="538" y="473" type="line"/>
      <point x="538" y="572" type="line"/>
    </contour>
    <contour>
      <point x="503" y="572" type="line"/>
      <point x="503" y="473" type="line"/>
      <point x="985" y="473" type="line"/>
      <point x="985" y="572" type="line"/>
    </contour>
    <contour>
      <point x="347" y="92" type="curve" smooth="yes"/>
      <point x="347" y="594" type="line" smooth="yes"/>
      <point x="347" y="651"/>
      <point x="363" y="672"/>
      <point x="426" y="672" type="curve" smooth="yes"/>
      <point x="461" y="672"/>
      <point x="487" y="665"/>
      <point x="496" y="664" type="curve"/>
      <point x="496" y="758" type="line"/>
      <point x="484" y="761"/>
      <point x="434" y="770"/>
      <point x="371" y="770" type="curve" smooth="yes"/>
      <point x="221" y="770"/>
      <point x="127" y="724"/>
      <point x="127" y="577" type="curve" smooth="yes"/>
      <point x="127" y="154" type="line" smooth="yes"/>
      <point x="127" y="103"/>
      <point x="106" y="84"/>
      <point x="64" y="84" type="curve" smooth="yes"/>
      <point x="37" y="84" type="line"/>
      <point x="37" y="0" type="line"/>
      <point x="424" y="0" type="line"/>
      <point x="424" y="84" type="line"/>
      <point x="413" y="84" type="line" smooth="yes"/>
      <point x="381" y="84"/>
      <point x="347" y="86"/>
    </contour>
    <contour>
      <point x="601" y="92" type="line"/>
      <point x="601" y="86"/>
      <point x="568" y="84"/>
      <point x="535" y="84" type="curve" smooth="yes"/>
      <point x="525" y="84" type="line"/>
      <point x="525" y="0" type="line"/>
      <point x="924" y="0" type="line"/>
      <point x="924" y="84" type="line"/>
      <point x="907" y="84" type="line" smooth="yes"/>
      <point x="874" y="84"/>
      <point x="820" y="86"/>
      <point x="820" y="92" type="curve" smooth="yes"/>
      <point x="820" y="609" type="line" smooth="yes"/>
      <point x="820" y="666"/>
      <point x="846" y="687"/>
      <point x="916" y="687" type="curve" smooth="yes"/>
      <point x="978" y="687"/>
      <point x="1033" y="670"/>
      <point x="1045" y="668" type="curve"/>
      <point x="1045" y="771" type="line"/>
      <point x="1030" y="775"/>
      <point x="966" y="785"/>
      <point x="890" y="785" type="curve" smooth="yes"/>
      <point x="723" y="785"/>
      <point x="601" y="739"/>
      <point x="601" y="593" type="curve"/>
    </contour>
  </outline>
</glyph>
<glyph name="F.alt" format="2">
  <advance width="763"/>
  <outline>
    <contour>
      <point x="345" y="612" type="line"/>
      <point x="483" y="612" type="line" smooth="yes"/>
      <point x="546" y="612"/>
      <point x="581" y="603"/>
      <point x="587" y="567" type="curve" smooth="yes"/>
      <point x="598" y="511" type="line"/>
      <point x="708" y="511" type="line"/>
      <point x="708" y="710" type="line"/>
      <point x="42" y="710" type="line"/>
      <point x="42" y="610" type="line"/>
      <point x="54" y="610" type="line" smooth="yes"/>
      <point x="86" y="610"/>
      <point x="111" y="603"/>
      <point x="111" y="574" type="curve" smooth="yes"/>
      <point x="111" y="137" type="line" smooth="yes"/>
      <point x="111" y="108"/>
      <point x="86" y="101"/>
      <point x="54" y="101" type="curve" smooth="yes"/>
      <point x="42" y="101" type="line"/>
      <point x="42" y="0" type="line"/>
      <point x="438" y="0" type="line"/>
      <point x="438" y="101" type="line"/>
      <point x="416" y="101" type="line" smooth="yes"/>
      <point x="379" y="101"/>
      <point x="345" y="104"/>
      <point x="345" y="111" type="curve" smooth="yes"/>
    </contour>
    <contour>
      <point x="264" y="389" type="line"/>
      <point x="264" y="296" type="line"/>
      <point x="443" y="296" type="line" smooth="yes"/>
      <point x="474" y="296"/>
      <point x="485" y="271"/>
      <point x="485" y="248" type="curve" smooth="yes"/>
      <point x="485" y="232" type="line"/>
      <point x="580" y="232" type="line"/>
      <point x="580" y="450" type="line"/>
      <point x="485" y="450" type="line"/>
      <point x="485" y="438" type="line" smooth="yes"/>
      <point x="485" y="414"/>
      <point x="474" y="389"/>
      <point x="443" y="389" type="curve" smooth="yes"/>
    </contour>
  </outline>
</glyph>
<glyph name="blackdiamond" format="2">
  <advance width="669"/>
  <outline>
    <contour>
      <point x="615" y="313" type="line"/>
      <point x="334" y="574" type="line"/>
      <point x="54" y="313" type="line"/>
      <point x="334" y="52" type="line"/>
    </contour>
  </outline>
</glyph>
<glyph name="breve.uc" format="2">
  <advance width="538"/>
  <anchor x="269" y="694" name="_top"/>
  <outline>
    <contour>
      <point x="269" y="781" type="curve" smooth="yes"/>
      <point x="106" y="781"/>
      <point x="39" y="846"/>
      <point x="40" y="1002" type="curve"/>
      <point x="152" y="1002" type="line"/>
      <point x="156" y="945"/>
      <point x="175" y="927"/>
      <point x="272" y="927" type="curve" smooth="yes"/>
      <point x="369" y="927"/>
      <point x="387" y="945"/>
      <point x="391" y="1002" type="curve"/>
      <point x="497" y="1002" type="line"/>
      <point x="498" y="846"/>
      <point x="432" y="781"/>
    </contour>
  </outline>
</glyph>
<glyph name="cedi.proportional" format="2">
  <advance width="770"/>
  <outline>
    <contour>
      <point x="459" y="700" type="curve" smooth="yes"/>
      <point x="169" y="700"/>
      <point x="46" y="579"/>
      <point x="46" y="355" type="curve" smooth="yes"/>
      <point x="46" y="131"/>
      <point x="178" y="10"/>
      <point x="429" y="10" type="curve" smooth="yes"/>
      <point x="612" y="10"/>
      <point x="696" y="94"/>
      <point x="740" y="242" type="curve"/>
      <point x="636" y="276" type="line"/>
      <point x="598" y="161"/>
      <point x="553" y="107"/>
      <point x="451" y="107" type="curve" smooth="yes"/>
      <point x="316" y="107"/>
      <point x="276" y="154"/>
      <point x="276" y="355" type="curve" smooth="yes"/>
      <point x="276" y="562"/>
      <point x="308" y="610"/>
      <point x="454" y="610" type="curve" smooth="yes"/>
      <point x="533" y="610"/>
      <point x="576" y="593"/>
      <point x="604" y="578" type="curve"/>
      <point x="598" y="577"/>
      <point x="616" y="640"/>
      <point x="550" y="649" type="curve"/>
      <point x="550" y="462" type="line"/>
      <point x="728" y="462" type="line"/>
      <point x="728" y="652" type="line"/>
      <point x="697" y="665"/>
      <point x="598" y="700"/>
    </contour>
    <contour>
      <point x="374" y="790" type="line"/>
      <point x="374" y="678" type="line"/>
      <point x="400" y="669" type="line"/>
      <point x="400" y="51" type="line"/>
      <point x="374" y="37" type="line"/>
      <point x="374" y="-120" type="line"/>
      <point x="490" y="-120" type="line"/>
      <point x="490" y="39" type="line"/>
      <point x="457" y="47" type="line"/>
      <point x="457" y="672" type="line"/>
      <point x="490" y="680" type="line"/>
      <point x="490" y="790" type="line"/>
    </contour>
  </outline>
</glyph>
<glyph name="circumflex_acute.uc" format="2">
  <advance width="545"/>
  <anchor x="272" y="749" name="_top"/>
  <outline>
    <contour>
      <point x="541" y="1091" type="curve" smooth="yes"/>
      <point x="469" y="966" type="line"/>
      <point x="469" y="921" type="line"/>
      <point x="526" y="921" type="line"/>
      <point x="645" y="970" type="line" smooth="yes"/>
      <point x="726" y="1009"/>
      <point x="763" y="1040"/>
      <point x="763" y="1099" type="curve" smooth="yes"/>
      <point x="763" y="1153"/>
      <point x="723" y="1191"/>
      <point x="664" y="1191" type="curve" smooth="yes"/>
      <point x="601" y="1191"/>
      <point x="568" y="1143"/>
    </contour>
    <component base="circumflex.uc"/>
  </outline>
</glyph>
<glyph name="circumflex_grave" format="2">
  <advance width="649"/>
  <anchor x="269" y="564" name="_top"/>
  <outline>
    <contour>
      <point x="611" y="920" type="curve" smooth="yes"/>
      <point x="658" y="812" type="line"/>
      <point x="658" y="769" type="line"/>
      <point x="599" y="769" type="line"/>
      <point x="481" y="831" type="line" smooth="yes"/>
      <point x="437" y="856"/>
      <point x="396" y="889"/>
      <point x="396" y="945" type="curve" smooth="yes"/>
      <point x="396" y="997"/>
      <point x="437" y="1036"/>
      <point x="491" y="1036" type="curve" smooth="yes"/>
      <point x="554" y="1036"/>
      <point x="585" y="990"/>
    </contour>
    <component base="circumflex"/>
  </outline>
</glyph>
<glyph name="circumflex_hook" format="2">
  <advance width="581"/>
  <anchor x="273" y="559" name="_top"/>
  <outline>
    <contour>
      <point x="368" y="937" type="line"/>
      <point x="377" y="1027"/>
      <point x="464" y="1069"/>
      <point x="567" y="1069" type="curve" smooth="yes"/>
      <point x="681" y="1069"/>
      <point x="763" y="1034"/>
      <point x="763" y="950" type="curve" smooth="yes"/>
      <point x="763" y="852"/>
      <point x="663" y="827"/>
      <point x="552" y="824" type="curve"/>
      <point x="621" y="875" type="line"/>
      <point x="621" y="780" type="line"/>
      <point x="503" y="780" type="line"/>
      <point x="503" y="883" type="line"/>
      <point x="589" y="886"/>
      <point x="619" y="896"/>
      <point x="619" y="941" type="curve" smooth="yes"/>
      <point x="619" y="972"/>
      <point x="606" y="986"/>
      <point x="565" y="986" type="curve" smooth="yes"/>
      <point x="522" y="986"/>
      <point x="510" y="977"/>
      <point x="505" y="937" type="curve"/>
    </contour>
    <component base="circumflex"/>
  </outline>
</glyph>
<glyph name="colonmonetary.proportional" format="2">
  <advance width="808"/>
  <outline>
    <contour>
      <point x="479" y="700" type="curve" smooth="yes"/>
      <point x="205" y="700"/>
      <point x="57" y="587"/>
      <point x="57" y="355" type="curve" smooth="yes"/>
      <point x="57" y="107"/>
      <point x="188" y="10"/>
      <point x="440" y="10" type="curve" smooth="yes"/>
      <point x="639" y="10"/>
      <point x="718" y="99"/>
      <point x="755" y="232" type="curve"/>
      <point x="655" y="260" type="line"/>
      <point x="618" y="158"/>
      <point x="580" y="103"/>
      <point x="460" y="103" type="curve" smooth="yes"/>
      <point x="281" y="103"/>
      <point x="255" y="147"/>
      <point x="255" y="355" type="curve" smooth="yes"/>
      <point x="255" y="560"/>
      <point x="305" y="609"/>
      <point x="477" y="609" type="curve" smooth="yes"/>
      <point x="611" y="609"/>
      <point x="672" y="582"/>
      <point x="701" y="568" type="curve"/>
      <point x="698" y="589"/>
      <point x="648" y="636"/>
      <point x="623" y="645" type="curve"/>
      <point x="623" y="442" type="line"/>
      <point x="754" y="442" type="line"/>
      <point x="754" y="659" type="line"/>
      <point x="717" y="671"/>
      <point x="625" y="700"/>
    </contour>
    <contour>
      <point x="423" y="790" type="line"/>
      <point x="398" y="668" type="line"/>
      <point x="432" y="649" type="line"/>
      <point x="291" y="98" type="line"/>
      <point x="244" y="87" type="line"/>
      <point x="198" y="-120" type="line"/>
      <point x="301" y="-120" type="line"/>
      <point x="341" y="58" type="line"/>
      <point x="335" y="71" type="line"/>
      <point x="483" y="657" type="line"/>
      <point x="504" y="682" type="line"/>
      <point x="526" y="790" type="line"/>
    </contour>
    <contour>
      <point x="584" y="790" type="line"/>
      <point x="561" y="682" type="line"/>
      <point x="567" y="664" type="line"/>
      <point x="415" y="51" type="line"/>
      <point x="397" y="41" type="line"/>
      <point x="359" y="-120" type="line"/>
      <point x="462" y="-120" type="line"/>
      <point x="496" y="28" type="line"/>
      <point x="463" y="44" type="line"/>
      <point x="615" y="658" type="line"/>
      <point x="662" y="669" type="line"/>
      <point x="687" y="790" type="line"/>
    </contour>
  </outline>
</glyph>
<glyph name="f.alt" format="2">
  <advance width="542"/>
  <outline>
    <contour>
      <point x="29" y="572" type="line"/>
      <point x="29" y="473" type="line"/>
      <point x="512" y="473" type="line"/>
      <point x="512" y="572" type="line"/>
    </contour>
    <contour>
      <point x="435" y="706" type="curve" smooth="yes"/>
      <point x="477" y="706"/>
      <point x="496" y="699"/>
      <point x="515" y="689" type="curve"/>
      <point x="504" y="718"/>
      <point x="514" y="729"/>
      <point x="474" y="729" type="curve"/>
      <point x="474" y="634" type="line"/>
      <point x="625" y="634" type="line"/>
      <point x="625" y="764" type="line"/>
      <point x="606" y="769"/>
      <point x="512" y="785"/>
      <point x="424" y="785" type="curve" smooth="yes"/>
      <point x="251" y="785"/>
      <point x="127" y="739"/>
      <point x="127" y="593" type="curve" smooth="yes"/>
      <point x="127" y="154" type="line" smooth="yes"/>
      <point x="127" y="103"/>
      <point x="106" y="84"/>
      <point x="64" y="84" type="curve" smooth="yes"/>
      <point x="37" y="84" type="line"/>
      <point x="37" y="0" type="line"/>
      <point x="450" y="0" type="line"/>
      <point x="450" y="84" type="line"/>
      <point x="433" y="84" type="line" smooth="yes"/>
      <point x="401" y="84"/>
      <point x="347" y="86"/>
      <point x="347" y="92" type="curve" smooth="yes"/>
      <point x="347" y="609" type="line" smooth="yes"/>
      <point x="347" y="682"/>
      <point x="367" y="706"/>
    </contour>
  </outline>
</glyph>
<glyph name="f.short" format="2">
  <advance width="533"/>
  <outline>
    <contour>
      <point x="29" y="572" type="line"/>
      <point x="29" y="473" type="line"/>
      <point x="506" y="473" type="line"/>
      <point x="506" y="572" type="line"/>
    </contour>
    <contour>
      <point x="347" y="92" type="curve" smooth="yes"/>
      <point x="347" y="609" type="line" smooth="yes"/>
      <point x="347" y="666"/>
      <point x="369" y="687"/>
      <point x="428" y="687" type="curve"/>
      <point x="467" y="687"/>
      <point x="502" y="674"/>
      <point x="511" y="673" type="curve"/>
      <point x="511" y="771" type="line"/>
      <point x="498" y="775"/>
      <point x="442" y="785"/>
      <point x="377" y="785" type="curve"/>
      <point x="230" y="785"/>
      <point x="127" y="739"/>
      <point x="127" y="592" type="curve" smooth="yes"/>
      <point x="127" y="154" type="line" smooth="yes"/>
      <point x="127" y="103"/>
      <point x="106" y="84"/>
      <point x="64" y="84" type="curve" smooth="yes"/>
      <point x="37" y="84" type="line"/>
      <point x="37" y="0" type="line"/>
      <point x="450" y="0" type="line"/>
      <point x="450" y="84" type="line"/>
      <point x="433" y="84" type="line" smooth="yes"/>
      <point x="401" y="84"/>
      <point x="347" y="86"/>
    </contour>
  </outline>
</glyph>
<glyph name="five.den" format="2">
  <advance width="522"/>
  <outline>
    <contour>
      <point x="241" y="-6" type="curve" smooth="yes"/>
      <point x="124" y="-6"/>
      <point x="73" y="26"/>
      <point x="44" y="82" type="curve"/>
      <point x="113" y="120" type="line"/>
      <point x="132" y="88"/>
      <point x="162" y="64"/>
      <point x="225" y="64" type="curve" smooth="yes"/>
      <point x="287" y="64"/>
      <point x="310" y="81"/>
      <point x="310" y="141" type="curve" smooth="yes"/>
      <point x="310" y="196"/>
      <point x="293" y="212"/>
      <point x="236" y="212" type="curve" smooth="yes"/>
      <point x="196" y="212"/>
      <point x="178" y="199"/>
      <point x="163" y="180" type="curve"/>
      <point x="97" y="180" type="line"/>
      <point x="97" y="426" type="line"/>
      <point x="426" y="426" type="line"/>
      <point x="411" y="320" type="line"/>
      <point x="135" y="320" type="line"/>
      <point x="162" y="412" type="line"/>
      <point x="162" y="212" type="line"/>
      <point x="160" y="194"/>
      <point x="140" y="190"/>
      <point x="144" y="210" type="curve"/>
      <point x="169" y="244"/>
      <point x="206" y="272"/>
      <point x="280" y="272" type="curve" smooth="yes"/>
      <point x="404" y="272"/>
      <point x="459" y="229"/>
      <point x="459" y="141" type="curve" smooth="yes"/>
      <point x="459" y="39"/>
      <point x="381" y="-6"/>
    </contour>
  </outline>
</glyph>
<glyph name="five.midprop" format="2">
  <advance width="645"/>
  <outline>
    <contour>
      <point x="286" y="-58" type="curve" smooth="yes"/>
      <point x="126" y="-58"/>
      <point x="52" y="-14"/>
      <point x="14" y="98" type="curve"/>
      <point x="121" y="136" type="line"/>
      <point x="144" y="82"/>
      <point x="178" y="47"/>
      <point x="274" y="47" type="curve" smooth="yes"/>
      <point x="359" y="47"/>
      <point x="396" y="82"/>
      <point x="396" y="201" type="curve" smooth="yes"/>
      <point x="396" y="291"/>
      <point x="364" y="322"/>
      <point x="288" y="322" type="curve" smooth="yes"/>
      <point x="219" y="322"/>
      <point x="192" y="294"/>
      <point x="168" y="248" type="curve"/>
      <point x="78" y="248" type="line"/>
      <point x="78" y="680" type="line"/>
      <point x="549" y="680" type="line"/>
      <point x="529" y="517" type="line"/>
      <point x="158" y="517" type="line"/>
      <point x="180" y="660" type="line"/>
      <point x="180" y="331" type="line"/>
      <point x="185" y="308"/>
      <point x="166" y="304"/>
      <point x="158" y="310" type="curve"/>
      <point x="186" y="379"/>
      <point x="233" y="426"/>
      <point x="358" y="426" type="curve" smooth="yes"/>
      <point x="515" y="426"/>
      <point x="606" y="351"/>
      <point x="606" y="201" type="curve" smooth="yes"/>
      <point x="606" y="25"/>
      <point x="496" y="-58"/>
    </contour>
  </outline>
</glyph>
<glyph name="five.oldprop" format="2">
  <advance width="645"/>
  <outline>
    <contour>
      <point x="286" y="-90" type="curve" smooth="yes"/>
      <point x="126" y="-90"/>
      <point x="52" y="-47"/>
      <point x="15" y="66" type="curve"/>
      <point x="122" y="104" type="line"/>
      <point x="144" y="50"/>
      <point x="178" y="15"/>
      <point x="274" y="15" type="curve" smooth="yes"/>
      <point x="359" y="15"/>
      <point x="396" y="49"/>
      <point x="396" y="164" type="curve" smooth="yes"/>
      <point x="396" y="251"/>
      <point x="364" y="281"/>
      <point x="288" y="281" type="curve" smooth="yes"/>
      <point x="220" y="281"/>
      <point x="193" y="253"/>
      <point x="168" y="207" type="curve"/>
      <point x="79" y="207" type="line"/>
      <point x="79" y="639" type="line"/>
      <point x="549" y="639" type="line"/>
      <point x="529" y="476" type="line"/>
      <point x="158" y="476" type="line"/>
      <point x="180" y="619" type="line"/>
      <point x="180" y="290" type="line"/>
      <point x="185" y="267"/>
      <point x="166" y="263"/>
      <point x="159" y="269" type="curve"/>
      <point x="186" y="338"/>
      <point x="233" y="385"/>
      <point x="358" y="385" type="curve" smooth="yes"/>
      <point x="515" y="385"/>
      <point x="606" y="311"/>
      <point x="606" y="164" type="curve" smooth="yes"/>
      <point x="606" y="-8"/>
      <point x="496" y="-90"/>
    </contour>
  </outline>
</glyph>
<glyph name="five.oldtab" format="2">
  <advance width="602"/>
  <outline>
    <contour>
      <point x="271" y="-90" type="curve" smooth="yes"/>
      <point x="115" y="-90"/>
      <point x="47" y="-47"/>
      <point x="13" y="65" type="curve"/>
      <point x="119" y="103" type="line"/>
      <point x="138" y="49"/>
      <point x="166" y="15"/>
      <point x="248" y="15" type="curve" smooth="yes"/>
      <point x="321" y="15"/>
      <point x="352" y="52"/>
      <point x="352" y="164" type="curve" smooth="yes"/>
      <point x="352" y="251"/>
      <point x="327" y="281"/>
      <point x="262" y="281" type="curve" smooth="yes"/>
      <point x="208" y="281"/>
      <point x="190" y="253"/>
      <point x="168" y="208" type="curve"/>
      <point x="78" y="208" type="line"/>
      <point x="78" y="639" type="line"/>
      <point x="505" y="639" type="line"/>
      <point x="485" y="482" type="line"/>
      <point x="158" y="482" type="line"/>
      <point x="180" y="619" type="line"/>
      <point x="180" y="293" type="line"/>
      <point x="175" y="278"/>
      <point x="158" y="274"/>
      <point x="159" y="274" type="curve"/>
      <point x="185" y="339"/>
      <point x="222" y="385"/>
      <point x="340" y="385" type="curve" smooth="yes"/>
      <point x="478" y="385"/>
      <point x="558" y="311"/>
      <point x="558" y="164" type="curve" smooth="yes"/>
      <point x="558" y="-8"/>
      <point x="462" y="-90"/>
    </contour>
  </outline>
</glyph>
<glyph name="four.lintab" format="2">
  <advance width="602"/>
  <outline>
    <contour>
      <point x="224" y="0" type="line"/>
      <point x="575" y="0" type="line"/>
      <point x="575" y="101" type="line"/>
      <point x="560" y="101" type="line" smooth="yes"/>
      <point x="527" y="101"/>
      <point x="499" y="108"/>
      <point x="499" y="137" type="curve" smooth="yes"/>
      <point x="499" y="710" type="line"/>
      <point x="300" y="710" type="line"/>
      <point x="302" y="684" type="line"/>
      <point x="302" y="137" type="line" smooth="yes"/>
      <point x="302" y="108"/>
      <point x="274" y="101"/>
      <point x="240" y="101" type="curve" smooth="yes"/>
      <point x="224" y="101" type="line"/>
    </contour>
    <contour>
      <point x="30" y="183" type="line"/>
      <point x="588" y="183" type="line"/>
      <point x="588" y="338" type="line"/>
      <point x="100" y="338" type="line"/>
      <point x="85" y="268" type="line"/>
      <point x="319" y="663" type="line"/>
      <point x="326" y="710" type="line"/>
      <point x="244" y="710" type="line"/>
      <point x="30" y="358" type="line"/>
    </contour>
  </outline>
</glyph>
<glyph name="g.alt" format="2">
  <advance width="794"/>
  <outline>
    <contour>
      <point x="494" y="8" type="line" smooth="yes"/>
      <point x="494" y="-133"/>
      <point x="454" y="-160"/>
      <point x="327" y="-160" type="curve" smooth="yes"/>
      <point x="230" y="-160"/>
      <point x="172" y="-129"/>
      <point x="130" y="-100" type="curve"/>
      <point x="127" y="-130"/>
      <point x="198" y="-186"/>
      <point x="232" y="-201" type="curve"/>
      <point x="232" y="-43" type="line"/>
      <point x="53" y="-43" type="line"/>
      <point x="53" y="-197" type="line"/>
      <point x="101" y="-223"/>
      <point x="183" y="-258"/>
      <point x="335" y="-258" type="curve" smooth="yes"/>
      <point x="616" y="-258"/>
      <point x="716" y="-166"/>
      <point x="716" y="9" type="curve" smooth="yes"/>
      <point x="716" y="584" type="line"/>
      <point x="586" y="584" type="line"/>
      <point x="506" y="439" type="line"/>
      <point x="494" y="465" type="line"/>
    </contour>
    <contour>
      <point x="268" y="298" type="curve" smooth="yes"/>
      <point x="268" y="409"/>
      <point x="300" y="453"/>
      <point x="381" y="453" type="curve" smooth="yes"/>
      <point x="446" y="453"/>
      <point x="476" y="414"/>
      <point x="542" y="341" type="curve"/>
      <point x="552" y="375" type="line"/>
      <point x="516" y="503"/>
      <point x="450" y="583"/>
      <point x="311" y="583" type="curve" smooth="yes"/>
      <point x="137" y="583"/>
      <point x="41" y="458"/>
      <point x="41" y="298" type="curve" smooth="yes"/>
      <point x="41" y="138"/>
      <point x="124" y="27"/>
      <point x="297" y="27" type="curve" smooth="yes"/>
      <point x="423" y="27"/>
      <point x="491" y="109"/>
      <point x="542" y="245" type="curve"/>
      <point x="542" y="290" type="line"/>
      <point x="467" y="186"/>
      <point x="431" y="157"/>
      <point x="368" y="157" type="curve" smooth="yes"/>
      <point x="289" y="157"/>
      <point x="268" y="193"/>
    </contour>
  </outline>
</glyph>
<glyph name="guarani.proportional" format="2">
  <advance width="833"/>
  <outline>
    <contour>
      <point x="384" y="790" type="line"/>
      <point x="384" y="669" type="line"/>
      <point x="409" y="659" type="line"/>
      <point x="409" y="50" type="line"/>
      <point x="384" y="39" type="line"/>
      <point x="384" y="-120" type="line"/>
      <point x="500" y="-120" type="line"/>
      <point x="500" y="40" type="line"/>
      <point x="466" y="50" type="line"/>
      <point x="466" y="655" type="line"/>
      <point x="500" y="673" type="line"/>
      <point x="500" y="790" type="line"/>
    </contour>
    <contour>
      <point x="449" y="10" type="curve" smooth="yes"/>
      <point x="607" y="10"/>
      <point x="717" y="45"/>
      <point x="765" y="72" type="curve"/>
      <point x="765" y="223" type="line" smooth="yes"/>
      <point x="765" y="252"/>
      <point x="778" y="259"/>
      <point x="795" y="259" type="curve" smooth="yes"/>
      <point x="800" y="259" type="line"/>
      <point x="800" y="353" type="line"/>
      <point x="571" y="353" type="line"/>
      <point x="571" y="259" type="line"/>
      <point x="572" y="259" type="line" smooth="yes"/>
      <point x="576" y="259"/>
      <point x="578" y="252"/>
      <point x="578" y="223" type="curve" smooth="yes"/>
      <point x="578" y="105" type="line"/>
      <point x="557" y="97"/>
      <point x="532" y="94"/>
      <point x="484" y="94" type="curve" smooth="yes"/>
      <point x="298" y="94"/>
      <point x="269" y="161"/>
      <point x="269" y="355" type="curve" smooth="yes"/>
      <point x="269" y="544"/>
      <point x="284" y="616"/>
      <point x="477" y="616" type="curve" smooth="yes"/>
      <point x="556" y="616"/>
      <point x="615" y="600"/>
      <point x="651" y="564" type="curve"/>
      <point x="664" y="585"/>
      <point x="620" y="639"/>
      <point x="580" y="656" type="curve"/>
      <point x="580" y="490" type="line"/>
      <point x="767" y="490" type="line"/>
      <point x="767" y="648" type="line"/>
      <point x="718" y="670"/>
      <point x="620" y="700"/>
      <point x="484" y="700" type="curve" smooth="yes"/>
      <point x="174" y="700"/>
      <point x="36" y="577"/>
      <point x="36" y="355" type="curve" smooth="yes"/>
      <point x="36" y="129"/>
      <point x="167" y="10"/>
    </contour>
  </outline>
</glyph>
<glyph name="lira.alt" format="2">
  <advance width="602"/>
  <outline>
    <contour>
      <point x="27" y="0" type="line"/>
      <point x="575" y="0" type="line"/>
      <point x="575" y="235" type="line"/>
      <point x="464" y="235" type="line"/>
      <point x="450" y="180" type="line" smooth="yes"/>
      <point x="440" y="142"/>
      <point x="411" y="135"/>
      <point x="328" y="135" type="curve" smooth="yes"/>
      <point x="144" y="135" type="line"/>
      <point x="113" y="87" type="line"/>
      <point x="284" y="115"/>
      <point x="331" y="200"/>
      <point x="331" y="280" type="curve" smooth="yes"/>
      <point x="331" y="416"/>
      <point x="282" y="451"/>
      <point x="282" y="549" type="curve" smooth="yes"/>
      <point x="282" y="614"/>
      <point x="307" y="639"/>
      <point x="369" y="639" type="curve" smooth="yes"/>
      <point x="423" y="639"/>
      <point x="461" y="621"/>
      <point x="486" y="594" type="curve"/>
      <point x="481" y="613"/>
      <point x="442" y="678"/>
      <point x="408" y="680" type="curve"/>
      <point x="408" y="564" type="line"/>
      <point x="568" y="564" type="line"/>
      <point x="568" y="699" type="line"/>
      <point x="536" y="715"/>
      <point x="448" y="735"/>
      <point x="360" y="735" type="curve" smooth="yes"/>
      <point x="163" y="735"/>
      <point x="63" y="678"/>
      <point x="63" y="581" type="curve" smooth="yes"/>
      <point x="63" y="468"/>
      <point x="166" y="457"/>
      <point x="166" y="273" type="curve" smooth="yes"/>
      <point x="166" y="201"/>
      <point x="126" y="165"/>
      <point x="27" y="139" type="curve"/>
    </contour>
    <contour>
      <point x="23" y="504" type="line"/>
      <point x="23" y="426" type="line"/>
      <point x="475" y="426" type="line"/>
      <point x="475" y="504" type="line"/>
    </contour>
    <contour>
      <point x="23" y="361" type="line"/>
      <point x="23" y="283" type="line"/>
      <point x="475" y="283" type="line"/>
      <point x="475" y="361" type="line"/>
    </contour>
  </outline>
</glyph>
<glyph name="lira.proportional" format="2">
  <advance width="752"/>
  <outline>
    <contour>
      <point x="49" y="509" type="line"/>
      <point x="49" y="423" type="line"/>
      <point x="554" y="423" type="line"/>
      <point x="554" y="509" type="line"/>
    </contour>
    <contour>
      <point x="60" y="-13" type="line"/>
      <point x="257" y="27"/>
      <point x="389" y="133"/>
      <point x="389" y="274" type="curve" smooth="yes"/>
      <point x="389" y="377"/>
      <point x="337" y="415"/>
      <point x="337" y="557" type="curve" smooth="yes"/>
      <point x="337" y="616"/>
      <point x="366" y="650"/>
      <point x="447" y="650" type="curve" smooth="yes"/>
      <point x="507" y="650"/>
      <point x="556" y="632"/>
      <point x="586" y="605" type="curve"/>
      <point x="580" y="624"/>
      <point x="541" y="696"/>
      <point x="507" y="698" type="curve"/>
      <point x="507" y="563" type="line"/>
      <point x="672" y="563" type="line"/>
      <point x="672" y="703" type="line"/>
      <point x="638" y="720"/>
      <point x="533" y="735"/>
      <point x="438" y="735" type="curve" smooth="yes"/>
      <point x="229" y="735"/>
      <point x="106" y="687"/>
      <point x="106" y="580" type="curve" smooth="yes"/>
      <point x="106" y="474"/>
      <point x="209" y="468"/>
      <point x="209" y="273" type="curve" smooth="yes"/>
      <point x="209" y="200"/>
      <point x="164" y="162"/>
      <point x="60" y="141" type="curve"/>
    </contour>
    <contour>
      <point x="519" y="-10" type="curve" smooth="yes"/>
      <point x="650" y="-10"/>
      <point x="702" y="82"/>
      <point x="727" y="206" type="curve"/>
      <point x="625" y="233" type="line"/>
      <point x="602" y="167"/>
      <point x="585" y="148"/>
      <point x="512" y="148" type="curve" smooth="yes"/>
      <point x="432" y="148"/>
      <point x="404" y="167"/>
      <point x="366" y="215" type="curve"/>
      <point x="326" y="225"/>
      <point x="292" y="165"/>
      <point x="316" y="149" type="curve"/>
      <point x="380" y="38"/>
      <point x="402" y="-10"/>
    </contour>
    <contour>
      <point x="49" y="353" type="line"/>
      <point x="49" y="266" type="line"/>
      <point x="554" y="266" type="line"/>
      <point x="554" y="353" type="line"/>
    </contour>
  </outline>
</glyph>
<glyph name="liraTurkish" format="2">
  <advance width="602"/>
  <outline>
    <contour>
      <point x="19" y="446" type="line"/>
      <point x="19" y="353" type="line"/>
      <point x="493" y="529" type="line"/>
      <point x="493" y="622" type="line"/>
    </contour>
    <contour>
      <point x="19" y="270" type="line"/>
      <point x="19" y="177" type="line"/>
      <point x="493" y="353" type="line"/>
      <point x="493" y="446" type="line"/>
    </contour>
    <contour>
      <point x="298" y="94" type="curve" smooth="yes"/>
      <point x="270" y="94" type="line"/>
      <point x="270" y="574" type="line" smooth="yes"/>
      <point x="270" y="603"/>
      <point x="287" y="610"/>
      <point x="318" y="610" type="curve" smooth="yes"/>
      <point x="331" y="610" type="line"/>
      <point x="331" y="710" type="line"/>
      <point x="38" y="710" type="line"/>
      <point x="38" y="610" type="line"/>
      <point x="50" y="610" type="line" smooth="yes"/>
      <point x="87" y="610"/>
      <point x="106" y="603"/>
      <point x="106" y="574" type="curve" smooth="yes"/>
      <point x="106" y="137" type="line" smooth="yes"/>
      <point x="106" y="108"/>
      <point x="87" y="101"/>
      <point x="50" y="101" type="curve" smooth="yes"/>
      <point x="38" y="101" type="line"/>
      <point x="38" y="0" type="line"/>
      <point x="256" y="0" type="line" smooth="yes"/>
      <point x="504" y="0"/>
      <point x="573" y="106"/>
      <point x="589" y="243" type="curve"/>
      <point x="460" y="271" type="line"/>
      <point x="448" y="171"/>
      <point x="427" y="94"/>
    </contour>
  </outline>
</glyph>
<glyph name="lslash" format="2">
  <advance width="486"/>
  <outline>
    <contour>
      <point x="30" y="188" type="line"/>
      <point x="468" y="466" type="line"/>
      <point x="468" y="580" type="line"/>
      <point x="30" y="302" type="line"/>
    </contour>
    <component base="l" xOffset="30"/>
  </outline>
</glyph>
<glyph name="one.lintab" format="2">
  <advance width="602"/>
  <outline>
    <contour>
      <point x="445" y="132" type="curve" smooth="yes"/>
      <point x="445" y="710" type="line"/>
      <point x="260" y="710" type="line"/>
      <point x="224" y="663"/>
      <point x="174" y="635"/>
      <point x="50" y="633" type="curve"/>
      <point x="50" y="493" type="line"/>
      <point x="156" y="492"/>
      <point x="219" y="515"/>
      <point x="246" y="634" type="curve"/>
      <point x="225" y="629" type="line"/>
      <point x="225" y="132" type="line" smooth="yes"/>
      <point x="225" y="92"/>
      <point x="179" y="85"/>
      <point x="114" y="85" type="curve" smooth="yes"/>
      <point x="74" y="85" type="line"/>
      <point x="74" y="0" type="line"/>
      <point x="579" y="0" type="line"/>
      <point x="579" y="85" type="line"/>
      <point x="554" y="85" type="line"/>
      <point x="488" y="85"/>
      <point x="445" y="92"/>
    </contour>
  </outline>
</glyph>
<glyph name="one.oldtab" format="2">
  <advance width="602"/>
  <outline>
    <contour>
      <point x="443" y="131" type="curve" smooth="yes"/>
      <point x="443" y="639" type="line"/>
      <point x="258" y="639" type="line"/>
      <point x="221" y="594"/>
      <point x="172" y="566"/>
      <point x="47" y="565" type="curve"/>
      <point x="47" y="425" type="line"/>
      <point x="155" y="424"/>
      <point x="217" y="446"/>
      <point x="244" y="564" type="curve"/>
      <point x="223" y="558" type="line"/>
      <point x="223" y="131" type="line" smooth="yes"/>
      <point x="223" y="91"/>
      <point x="177" y="84"/>
      <point x="112" y="84" type="curve" smooth="yes"/>
      <point x="72" y="84" type="line"/>
      <point x="72" y="0" type="line"/>
      <point x="575" y="0" type="line"/>
      <point x="575" y="84" type="line"/>
      <point x="551" y="84" type="line"/>
      <point x="485" y="84"/>
      <point x="443" y="91"/>
    </contour>
  </outline>
</glyph>
<glyph name="parenleft.uc" format="2">
  <advance width="480"/>
  <outline>
    <contour>
      <point x="251" y="335" type="curve" smooth="yes"/>
      <point x="251" y="130"/>
      <point x="350" y="-4"/>
      <point x="470" y="-77" type="curve"/>
      <point x="470" y="-80" type="line"/>
      <point x="328" y="-80" type="line"/>
      <point x="173" y="-4"/>
      <point x="56" y="154"/>
      <point x="56" y="335" type="curve" smooth="yes"/>
      <point x="56" y="516"/>
      <point x="173" y="674"/>
      <point x="328" y="750" type="curve"/>
      <point x="470" y="750" type="line"/>
      <point x="470" y="747" type="line"/>
      <point x="350" y="674"/>
      <point x="251" y="540"/>
    </contour>
  </outline>
</glyph>
<glyph name="ruble.proportional" format="2">
  <advance width="760"/>
  <outline>
    <contour>
      <point x="55" y="415" type="line"/>
      <point x="414" y="415" type="line" smooth="yes"/>
      <point x="495" y="415"/>
      <point x="531" y="437"/>
      <point x="531" y="520" type="curve" smooth="yes"/>
      <point x="531" y="603"/>
      <point x="495" y="619"/>
      <point x="419" y="619" type="curve" smooth="yes"/>
      <point x="349" y="619" type="line"/>
      <point x="349" y="105" type="line" smooth="yes"/>
      <point x="349" y="98"/>
      <point x="367" y="95"/>
      <point x="404" y="95" type="curve" smooth="yes"/>
      <point x="414" y="95" type="line"/>
      <point x="414" y="0" type="line"/>
      <point x="87" y="0" type="line"/>
      <point x="87" y="95" type="line"/>
      <point x="95" y="95" type="line" smooth="yes"/>
      <point x="131" y="95"/>
      <point x="158" y="102"/>
      <point x="158" y="131" type="curve" smooth="yes"/>
      <point x="158" y="579" type="line" smooth="yes"/>
      <point x="158" y="608"/>
      <point x="131" y="615"/>
      <point x="95" y="615" type="curve" smooth="yes"/>
      <point x="87" y="615" type="line"/>
      <point x="87" y="710" type="line"/>
      <point x="482" y="710" type="line" smooth="yes"/>
      <point x="627" y="710"/>
      <point x="721" y="655"/>
      <point x="721" y="529" type="curve" smooth="yes"/>
      <point x="721" y="401"/>
      <point x="621" y="330"/>
      <point x="477" y="330" type="curve" smooth="yes"/>
      <point x="55" y="330" type="line"/>
    </contour>
    <contour>
      <point x="518" y="167" type="line"/>
      <point x="55" y="167" type="line"/>
      <point x="55" y="245" type="line"/>
      <point x="518" y="245" type="line"/>
    </contour>
  </outline>
</glyph>
<glyph name="seven.den" format="2">
  <advance width="520"/>
  <outline>
    <contour>
      <point x="248" y="321" type="line" smooth="yes"/>
      <point x="190" y="321"/>
      <point x="166" y="316"/>
      <point x="163" y="292" type="curve" smooth="yes"/>
      <point x="159" y="252" type="line"/>
      <point x="84" y="252" type="line"/>
      <point x="84" y="415" type="line"/>
      <point x="447" y="415" type="line"/>
      <point x="447" y="312" type="line"/>
      <point x="355" y="256"/>
      <point x="331" y="184"/>
      <point x="326" y="0" type="curve"/>
      <point x="165" y="0" type="line"/>
      <point x="183" y="179"/>
      <point x="328" y="299"/>
      <point x="409" y="343" type="curve"/>
      <point x="407" y="321" type="line"/>
    </contour>
  </outline>
</glyph>
<glyph name="six.linprop" format="2">
  <advance width="682"/>
  <outline>
    <contour>
      <point x="585" y="647" type="line"/>
      <point x="343" y="630"/>
      <point x="245" y="550"/>
      <point x="245" y="288" type="curve" smooth="yes"/>
      <point x="245" y="102"/>
      <point x="279" y="83"/>
      <point x="353" y="83" type="curve"/>
      <point x="425" y="83"/>
      <point x="447" y="107"/>
      <point x="447" y="239" type="curve" smooth="yes"/>
      <point x="447" y="349"/>
      <point x="423" y="381"/>
      <point x="358" y="381" type="curve" smooth="yes"/>
      <point x="303" y="381"/>
      <point x="269" y="367"/>
      <point x="221" y="315" type="curve"/>
      <point x="213" y="334" type="line"/>
      <point x="254" y="416"/>
      <point x="314" y="474"/>
      <point x="442" y="474" type="curve" smooth="yes"/>
      <point x="582" y="474"/>
      <point x="654" y="406"/>
      <point x="654" y="249" type="curve" smooth="yes"/>
      <point x="654" y="63"/>
      <point x="541" y="-10"/>
      <point x="351" y="-10" type="curve"/>
      <point x="149" y="-10"/>
      <point x="37" y="67"/>
      <point x="37" y="299" type="curve" smooth="yes"/>
      <point x="37" y="570"/>
      <point x="209" y="715"/>
      <point x="572" y="751" type="curve"/>
    </contour>
  </outline>
</glyph>
<glyph name="six.lintab" format="2">
  <advance width="602"/>
  <outline>
    <contour>
      <point x="518" y="647" type="line"/>
      <point x="312" y="630"/>
      <point x="231" y="550"/>
      <point x="231" y="288" type="curve" smooth="yes"/>
      <point x="231" y="102"/>
      <point x="250" y="83"/>
      <point x="307" y="83" type="curve" smooth="yes"/>
      <point x="364" y="83"/>
      <point x="374" y="107"/>
      <point x="374" y="239" type="curve" smooth="yes"/>
      <point x="374" y="349"/>
      <point x="362" y="381"/>
      <point x="309" y="381" type="curve" smooth="yes"/>
      <point x="264" y="381"/>
      <point x="239" y="367"/>
      <point x="203" y="315" type="curve"/>
      <point x="196" y="334" type="line"/>
      <point x="231" y="416"/>
      <point x="280" y="474"/>
      <point x="392" y="474" type="curve" smooth="yes"/>
      <point x="516" y="474"/>
      <point x="577" y="409"/>
      <point x="577" y="252" type="curve" smooth="yes"/>
      <point x="577" y="66"/>
      <point x="487" y="-10"/>
      <point x="315" y="-10" type="curve" smooth="yes"/>
      <point x="133" y="-10"/>
      <point x="29" y="67"/>
      <point x="29" y="299" type="curve" smooth="yes"/>
      <point x="29" y="570"/>
      <point x="175" y="715"/>
      <point x="504" y="751" type="curve"/>
    </contour>
  </outline>
</glyph>
<glyph name="sterling.alt" format="2">
  <advance width="602"/>
  <outline>
    <contour>
      <point x="32" y="0" type="line"/>
      <point x="579" y="0" type="line"/>
      <point x="579" y="244" type="line"/>
      <point x="467" y="244" type="line"/>
      <point x="452" y="180" type="line" smooth="yes"/>
      <point x="444" y="142"/>
      <point x="415" y="135"/>
      <point x="331" y="135" type="curve" smooth="yes"/>
      <point x="157" y="135" type="line"/>
      <point x="152" y="114" type="line"/>
      <point x="264" y="143"/>
      <point x="329" y="206"/>
      <point x="329" y="297" type="curve" smooth="yes"/>
      <point x="329" y="393"/>
      <point x="278" y="434"/>
      <point x="278" y="543" type="curve" smooth="yes"/>
      <point x="278" y="607"/>
      <point x="302" y="632"/>
      <point x="365" y="632" type="curve" smooth="yes"/>
      <point x="419" y="632"/>
      <point x="457" y="614"/>
      <point x="482" y="587" type="curve"/>
      <point x="477" y="606"/>
      <point x="437" y="678"/>
      <point x="403" y="680" type="curve"/>
      <point x="403" y="505" type="line"/>
      <point x="563" y="505" type="line"/>
      <point x="563" y="703" type="line"/>
      <point x="531" y="720"/>
      <point x="444" y="735"/>
      <point x="357" y="735" type="curve" smooth="yes"/>
      <point x="171" y="735"/>
      <point x="53" y="677"/>
      <point x="53" y="552" type="curve" smooth="yes"/>
      <point x="53" y="443"/>
      <point x="156" y="439"/>
      <point x="156" y="280" type="curve" smooth="yes"/>
      <point x="156" y="206"/>
      <point x="122" y="176"/>
      <point x="32" y="142" type="curve"/>
    </contour>
    <contour>
      <point x="21" y="424" type="line"/>
      <point x="21" y="313" type="line"/>
      <point x="468" y="313" type="line"/>
      <point x="468" y="424" type="line"/>
    </contour>
  </outline>
</glyph>
<glyph name="sterling.proportional" format="2">
  <advance width="737"/>
  <outline>
    <contour>
      <point x="46" y="420" type="line"/>
      <point x="46" y="309" type="line"/>
      <point x="541" y="309" type="line"/>
      <point x="541" y="420" type="line"/>
    </contour>
    <contour>
      <point x="55" y="-13" type="line"/>
      <point x="253" y="27"/>
      <point x="369" y="133"/>
      <point x="369" y="274" type="curve" smooth="yes"/>
      <point x="369" y="415"/>
      <point x="317" y="434"/>
      <point x="317" y="543" type="curve" smooth="yes"/>
      <point x="317" y="607"/>
      <point x="344" y="632"/>
      <point x="420" y="632" type="curve" smooth="yes"/>
      <point x="485" y="632"/>
      <point x="531" y="614"/>
      <point x="561" y="587" type="curve"/>
      <point x="556" y="606"/>
      <point x="516" y="678"/>
      <point x="482" y="680" type="curve"/>
      <point x="482" y="510" type="line"/>
      <point x="648" y="510" type="line"/>
      <point x="648" y="703" type="line"/>
      <point x="614" y="720"/>
      <point x="512" y="735"/>
      <point x="413" y="735" type="curve" smooth="yes"/>
      <point x="207" y="735"/>
      <point x="88" y="677"/>
      <point x="88" y="553" type="curve" smooth="yes"/>
      <point x="88" y="439"/>
      <point x="191" y="446"/>
      <point x="191" y="273" type="curve" smooth="yes"/>
      <point x="191" y="200"/>
      <point x="159" y="162"/>
      <point x="55" y="141" type="curve"/>
    </contour>
    <contour>
      <point x="493" y="-10" type="curve" smooth="yes"/>
      <point x="624" y="-10"/>
      <point x="674" y="109"/>
      <point x="699" y="235" type="curve"/>
      <point x="597" y="262" type="line"/>
      <point x="574" y="193"/>
      <point x="556" y="170"/>
      <point x="483" y="170" type="curve" smooth="yes"/>
      <point x="403" y="170"/>
      <point x="375" y="189"/>
      <point x="338" y="237" type="curve"/>
      <point x="297" y="247"/>
      <point x="270" y="176"/>
      <point x="294" y="171" type="curve"/>
      <point x="358" y="49"/>
      <point x="376" y="-10"/>
    </contour>
  </outline>
</glyph>
<glyph name="three.linprop" format="2">
  <advance width="650"/>
  <outline>
    <contour>
      <point x="349" y="378" type="line"/>
      <point x="537" y="368"/>
      <point x="618" y="323"/>
      <point x="618" y="202" type="curve" smooth="yes"/>
      <point x="618" y="28"/>
      <point x="465" y="-11"/>
      <point x="292" y="-11" type="curve" smooth="yes"/>
      <point x="110" y="-11"/>
      <point x="51" y="61"/>
      <point x="10" y="146" type="curve"/>
      <point x="110" y="196" type="line"/>
      <point x="136" y="153"/>
      <point x="173" y="88"/>
      <point x="279" y="88" type="curve" smooth="yes"/>
      <point x="369" y="88"/>
      <point x="405" y="107"/>
      <point x="405" y="206" type="curve" smooth="yes"/>
      <point x="405" y="285"/>
      <point x="386" y="323"/>
      <point x="272" y="323" type="curve" smooth="yes"/>
      <point x="174" y="323" type="line"/>
      <point x="174" y="425" type="line"/>
      <point x="257" y="425" type="line" smooth="yes"/>
      <point x="353" y="425"/>
      <point x="390" y="465"/>
      <point x="390" y="557" type="curve" smooth="yes"/>
      <point x="390" y="615"/>
      <point x="367" y="642"/>
      <point x="294" y="642" type="curve" smooth="yes"/>
      <point x="230" y="642"/>
      <point x="186" y="629"/>
      <point x="181" y="631" type="curve"/>
      <point x="170" y="644"/>
      <point x="192" y="659"/>
      <point x="225" y="662" type="curve"/>
      <point x="225" y="520" type="line"/>
      <point x="64" y="520" type="line"/>
      <point x="64" y="689" type="line"/>
      <point x="118" y="714"/>
      <point x="209" y="735"/>
      <point x="320" y="735" type="curve" smooth="yes"/>
      <point x="500" y="735"/>
      <point x="593" y="689"/>
      <point x="593" y="563" type="curve" smooth="yes"/>
      <point x="593" y="432"/>
      <point x="474" y="401"/>
      <point x="346" y="383" type="curve"/>
      <point x="390" y="409" type="line"/>
      <point x="390" y="354" type="line"/>
    </contour>
  </outline>
</glyph>
<glyph name="three.midprop" format="2">
  <advance width="650"/>
  <outline>
    <contour>
      <point x="349" y="334" type="line"/>
      <point x="537" y="324"/>
      <point x="618" y="280"/>
      <point x="618" y="159" type="curve" smooth="yes"/>
      <point x="618" y="-18"/>
      <point x="465" y="-58"/>
      <point x="292" y="-58" type="curve" smooth="yes"/>
      <point x="110" y="-58"/>
      <point x="51" y="14"/>
      <point x="10" y="99" type="curve"/>
      <point x="110" y="149" type="line"/>
      <point x="136" y="106"/>
      <point x="173" y="41"/>
      <point x="279" y="41" type="curve" smooth="yes"/>
      <point x="369" y="41"/>
      <point x="405" y="60"/>
      <point x="405" y="162" type="curve" smooth="yes"/>
      <point x="405" y="242"/>
      <point x="386" y="278"/>
      <point x="272" y="278" type="curve" smooth="yes"/>
      <point x="174" y="278" type="line"/>
      <point x="174" y="381" type="line"/>
      <point x="257" y="381" type="line" smooth="yes"/>
      <point x="353" y="381"/>
      <point x="390" y="424"/>
      <point x="390" y="515" type="curve" smooth="yes"/>
      <point x="390" y="574"/>
      <point x="367" y="601"/>
      <point x="294" y="601" type="curve" smooth="yes"/>
      <point x="230" y="601"/>
      <point x="186" y="588"/>
      <point x="181" y="590" type="curve"/>
      <point x="170" y="603"/>
      <point x="192" y="618"/>
      <point x="225" y="621" type="curve"/>
      <point x="225" y="479" type="line"/>
      <point x="64" y="479" type="line"/>
      <point x="64" y="648" type="line"/>
      <point x="118" y="673"/>
      <point x="209" y="694"/>
      <point x="320" y="694" type="curve" smooth="yes"/>
      <point x="500" y="694"/>
      <point x="593" y="648"/>
      <point x="593" y="522" type="curve" smooth="yes"/>
      <point x="593" y="390"/>
      <point x="474" y="357"/>
      <point x="346" y="338" type="curve"/>
      <point x="391" y="365" type="line"/>
      <point x="391" y="310" type="line"/>
    </contour>
  </outline>
</glyph>
<glyph name="two.lintab" format="2">
  <advance width="602"/>
  <outline>
    <contour>
      <point x="344" y="157" type="line" smooth="yes"/>
      <point x="427" y="157"/>
      <point x="457" y="159"/>
      <point x="463" y="196" type="curve" smooth="yes"/>
      <point x="473" y="245" type="line"/>
      <point x="566" y="245" type="line"/>
      <point x="566" y="0" type="line"/>
      <point x="37" y="0" type="line"/>
      <point x="37" y="199" type="line"/>
      <point x="246" y="307"/>
      <point x="348" y="335"/>
      <point x="348" y="532" type="curve" smooth="yes"/>
      <point x="348" y="614"/>
      <point x="323" y="636"/>
      <point x="260" y="636" type="curve" smooth="yes"/>
      <point x="205" y="636"/>
      <point x="159" y="618"/>
      <point x="143" y="614" type="curve"/>
      <point x="129" y="624"/>
      <point x="168" y="651"/>
      <point x="205" y="656" type="curve" smooth="yes"/>
      <point x="205" y="489" type="line"/>
      <point x="43" y="489" type="line"/>
      <point x="43" y="675" type="line"/>
      <point x="85" y="701"/>
      <point x="174" y="735"/>
      <point x="296" y="735" type="curve" smooth="yes"/>
      <point x="480" y="735"/>
      <point x="557" y="659"/>
      <point x="557" y="531" type="curve" smooth="yes"/>
      <point x="557" y="314"/>
      <point x="332" y="258"/>
      <point x="90" y="142" type="curve"/>
      <point x="71" y="143"/>
      <point x="58" y="139"/>
      <point x="79" y="157" type="curve"/>
    </contour>
  </outline>
</glyph>
<glyph name="uni20B8.proportional" format="2">
  <advance width="782"/>
  <outline>
    <contour>
      <point x="50" y="751" type="line"/>
      <point x="50" y="649" type="line"/>
      <point x="733" y="649" type="line"/>
      <point x="733" y="751" type="line"/>
    </contour>
    <contour>
      <point x="53" y="547" type="line"/>
      <point x="53" y="289" type="line"/>
      <point x="161" y="289" type="line"/>
      <point x="173" y="399" type="line" smooth="yes"/>
      <point x="177" y="435"/>
      <point x="197" y="452"/>
      <point x="260" y="452" type="curve" smooth="yes"/>
      <point x="295" y="452" type="line"/>
      <point x="295" y="137" type="line" smooth="yes"/>
      <point x="295" y="108"/>
      <point x="267" y="101"/>
      <point x="233" y="101" type="curve" smooth="yes"/>
      <point x="213" y="101" type="line"/>
      <point x="213" y="0" type="line"/>
      <point x="569" y="0" type="line"/>
      <point x="569" y="101" type="line"/>
      <point x="549" y="101" type="line" smooth="yes"/>
      <point x="516" y="101"/>
      <point x="487" y="108"/>
      <point x="487" y="137" type="curve" smooth="yes"/>
      <point x="487" y="452" type="line"/>
      <point x="522" y="452" type="line" smooth="yes"/>
      <point x="585" y="452"/>
      <point x="605" y="435"/>
      <point x="610" y="399" type="curve" smooth="yes"/>
      <point x="622" y="289" type="line"/>
      <point x="729" y="289" type="line"/>
      <point x="729" y="547" type="line"/>
    </contour>
  </outline>
</glyph>
<glyph name="whiteuppointingtriangle" format="2">
  <advance width="694"/>
  <outline>
    <contour>
      <point x="645" y="91" type="line"/>
      <point x="357" y="464" type="line"/>
      <point x="70" y="91" type="line"/>
    </contour>
    <contour>
      <point x="169" y="125" type="line"/>
      <point x="363" y="380" type="line"/>
      <point x="352" y="380" type="line"/>
      <point x="546" y="125" type="line"/>
      <point x="554" y="141" type="line"/>
      <point x="161" y="141" type="line"/>
    </contour>
  </outline>
</glyph>
<glyph name="zero.linprop" format="2">
  <advance width="742"/>
  <outline>
    <contour>
      <point x="371" y="-11" type="curve" smooth="yes"/>
      <point x="562" y="-11"/>
      <point x="702" y="99"/>
      <point x="702" y="362" type="curve" smooth="yes"/>
      <point x="702" y="625"/>
      <point x="562" y="735"/>
      <point x="371" y="735" type="curve" smooth="yes"/>
      <point x="180" y="735"/>
      <point x="40" y="625"/>
      <point x="40" y="362" type="curve" smooth="yes"/>
      <point x="40" y="99"/>
      <point x="180" y="-11"/>
    </contour>
    <contour>
      <point x="371" y="88" type="curve" smooth="yes"/>
      <point x="290" y="88"/>
      <point x="259" y="127"/>
      <point x="259" y="362" type="curve" smooth="yes"/>
      <point x="259" y="597"/>
      <point x="290" y="636"/>
      <point x="371" y="636" type="curve" smooth="yes"/>
      <point x="452" y="636"/>
      <point x="484" y="597"/>
      <point x="484" y="362" type="curve" smooth="yes"/>
      <point x="484" y="127"/>
      <point x="452" y="88"/>
    </contour>
  </outline>
</glyph>
<glyph name="zero.midprop" format="2">
  <advance width="741"/>
  <outline>
    <contour>
      <point x="371" y="-11" type="curve" smooth="yes"/>
      <point x="561" y="-11"/>
      <point x="701" y="93"/>
      <point x="701" y="342" type="curve" smooth="yes"/>
      <point x="701" y="590"/>
      <point x="561" y="694"/>
      <point x="371" y="694" type="curve" smooth="yes"/>
      <point x="180" y="694"/>
      <point x="40" y="590"/>
      <point x="40" y="342" type="curve" smooth="yes"/>
      <point x="40" y="93"/>
      <point x="180" y="-11"/>
    </contour>
    <contour>
      <point x="371" y="88" type="curve" smooth="yes"/>
      <point x="290" y="88"/>
      <point x="259" y="124"/>
      <point x="259" y="342" type="curve" smooth="yes"/>
      <point x="259" y="559"/>
      <point x="290" y="595"/>
      <point x="371" y="595" type="curve" smooth="yes"/>
      <point x="451" y="595"/>
      <point x="482" y="559"/>
      <point x="482" y="342" type="curve" smooth="yes"/>
      <point x="482" y="124"/>
      <point x="451" y="88"/>
    </contour>
  </outline>
</glyph>
<glyph name="zero.oldprop" format="2">
  <advance width="741"/>
  <outline>
    <contour>
      <point x="371" y="-11" type="curve" smooth="yes"/>
      <point x="561" y="-11"/>
      <point x="701" y="86"/>
      <point x="701" y="319" type="curve" smooth="yes"/>
      <point x="701" y="552"/>
      <point x="561" y="649"/>
      <point x="371" y="649" type="curve" smooth="yes"/>
      <point x="180" y="649"/>
      <point x="40" y="552"/>
      <point x="40" y="319" type="curve" smooth="yes"/>
      <point x="40" y="86"/>
      <point x="180" y="-11"/>
    </contour>
    <contour>
      <point x="371" y="88" type="curve" smooth="yes"/>
      <point x="290" y="88"/>
      <point x="259" y="120"/>
      <point x="259" y="319" type="curve" smooth="yes"/>
      <point x="259" y="518"/>
      <point x="290" y="550"/>
      <point x="371" y="550" type="curve" smooth="yes"/>
      <point x="451" y="550"/>
      <point x="482" y="518"/>
      <point x="482" y="319" type="curve" smooth="yes"/>
      <point x="482" y="120"/>
      <point x="451" y="88"/>
    </contour>
  </outline>
</glyph>
